<?xml version="1.0" encoding="utf-8"?>
<!DOCTYPE svg PUBLIC "-//W3C//DTD SVG 1.1//EN" "http://www.w3.org/Graphics/SVG/1.1/DTD/svg11.dtd">
<svg version="1.1" id="Layer_1" xmlns="http://www.w3.org/2000/svg" xmlns:xlink="http://www.w3.org/1999/xlink" x="0px" y="0px"
width="259px" height="259px" viewBox="0 0 259 259" enable-background="new 0 0 259 259" xml:space="preserve">
<rect x="0" y="0" width="259" height="259" fill="rgb(51,83,132)" /><g transform="translate(14,14)"><g transform="translate(70,0) scale(0.014,0.014)"><g transform="" style="fill: rgb(255, 255, 255);">
<path d="M250,0c58.27,0,250,0,250,0s0,170.182,0,250c0,62.305,0,250,0,250s-174.219,0-250,0
	C111.881,500,0,388.021,0,250C0,111.963,111.881,0,250,0z"/>
</g></g><g transform="translate(77,0) scale(0.07,0.07)"><g transform="" style="fill: rgb(255, 255, 255);">
<rect width="100" height="100"/>
</g></g><g transform="translate(84,0) scale(0.014,0.014)"><g transform="" style="fill: rgb(255, 255, 255);">
<path d="M250,500c-58.271,0-250,0-250,0s0-170.207,0-250C0,187.676,0,0,0,0s174.261,0,250,0c138.064,0,250,111.929,250,250
	C500,388.064,388.064,500,250,500z"/>
</g></g><g transform="translate(98,0) scale(0.014,0.014)"><g transform="" style="fill: rgb(255, 255, 255);">
<path d="M250,0c58.27,0,250,0,250,0s0,170.182,0,250c0,62.305,0,250,0,250s-174.219,0-250,0
	C111.881,500,0,388.021,0,250C0,111.963,111.881,0,250,0z"/>
</g></g><g transform="translate(105,0) scale(0.014,0.014)"><g transform="" style="fill: rgb(255, 255, 255);">
<g>
	<path d="M0,0v500h500C500,223.853,276.142,0,0,0z"/>
</g>
</g></g><g transform="translate(133,0) scale(0.014,0.014)"><g transform="" style="fill: rgb(255, 255, 255);">
<path d="M250,0c138.077,0,250,111.93,250,250c0,138.077-111.923,250-250,250C111.93,500,0,388.077,0,250C0,111.93,111.93,0,250,0z"
	/>
</g></g><g transform="translate(154,0) scale(0.014,0.014)"><g transform="" style="fill: rgb(255, 255, 255);">
<g>
	<path d="M0,500h500V0C223.861,0.001,0,223.854,0,500z"/>
</g>
</g></g><g transform="translate(161,0) scale(0.014,0.014)"><g transform="" style="fill: rgb(255, 255, 255);">
<g>
	<path d="M0,0v500h500C500,223.853,276.142,0,0,0z"/>
</g>
</g></g><g transform="translate(63,7) scale(0.014,0.014)"><g transform="" style="fill: rgb(255, 255, 255);">
<path d="M250,0c138.077,0,250,111.93,250,250c0,138.077-111.923,250-250,250C111.93,500,0,388.077,0,250C0,111.93,111.93,0,250,0z"
	/>
</g></g><g transform="translate(77,7) scale(0.014,0.014)"><g transform="" style="fill: rgb(255, 255, 255);">
<path d="M0,250C0,191.729,0,0,0,0s170.201,0,250,0c62.324,0,250,0,250,0s0,174.261,0,250c0,138.064-111.936,250-250,250
	C111.929,500,0,388.064,0,250z"/>
</g></g><g transform="translate(105,7) scale(0.07,0.07)"><g transform="" style="fill: rgb(255, 255, 255);">
<rect width="100" height="100"/>
</g></g><g transform="translate(119,7) scale(0.014,0.014)"><g transform="" style="fill: rgb(255, 255, 255);">
<path d="M500,250c0,58.266,0,250,0,250s-170.194,0-250-0.012c-62.324,0.012-250,0-250,0s0-174.241,0-249.994
	C0.006,111.931,111.929,0,249.994,0C388.064,0,500,111.93,500,250z"/>
</g></g><g transform="translate(140,7) scale(0.014,0.014)"><g transform="" style="fill: rgb(255, 255, 255);">
<path d="M250,0c138.077,0,250,111.93,250,250c0,138.077-111.923,250-250,250C111.93,500,0,388.077,0,250C0,111.93,111.93,0,250,0z"
	/>
</g></g><g transform="translate(154,7) scale(0.014,0.014)"><g transform="" style="fill: rgb(255, 255, 255);">
<g>
	<path d="M500,500V0H0C0.001,276.142,223.853,500,500,500z"/>
</g>
</g></g><g transform="translate(161,7) scale(0.07,0.07)"><g transform="" style="fill: rgb(255, 255, 255);">
<rect width="100" height="100"/>
</g></g><g transform="translate(168,7) scale(0.014,0.014)"><g transform="" style="fill: rgb(255, 255, 255);">
<path d="M250,500c-58.271,0-250,0-250,0s0-170.207,0-250C0,187.676,0,0,0,0s174.261,0,250,0c138.064,0,250,111.929,250,250
	C500,388.064,388.064,500,250,500z"/>
</g></g><g transform="translate(84,14) scale(0.014,0.014)"><g transform="" style="fill: rgb(255, 255, 255);">
<path d="M500,250c0,58.266,0,250,0,250s-170.194,0-250-0.012c-62.324,0.012-250,0-250,0s0-174.241,0-249.994
	C0.006,111.931,111.929,0,249.994,0C388.064,0,500,111.93,500,250z"/>
</g></g><g transform="translate(98,14) scale(0.014,0.014)"><g transform="" style="fill: rgb(255, 255, 255);">
<path d="M250,0c58.27,0,250,0,250,0s0,170.182,0,250c0,62.305,0,250,0,250s-174.219,0-250,0
	C111.881,500,0,388.021,0,250C0,111.963,111.881,0,250,0z"/>
</g></g><g transform="translate(105,14) scale(0.014,0.014)"><g transform="" style="fill: rgb(255, 255, 255);">
<g>
	<path d="M500,0H0v500C276.142,500,500,276.142,500,0z"/>
</g>
</g></g><g transform="translate(119,14) scale(0.07,0.07)"><g transform="" style="fill: rgb(255, 255, 255);">
<rect width="100" height="100"/>
</g></g><g transform="translate(63,21) scale(0.014,0.014)"><g transform="" style="fill: rgb(255, 255, 255);">
<path d="M250,0c138.077,0,250,111.93,250,250c0,138.077-111.923,250-250,250C111.93,500,0,388.077,0,250C0,111.93,111.93,0,250,0z"
	/>
</g></g><g transform="translate(77,21) scale(0.014,0.014)"><g transform="" style="fill: rgb(255, 255, 255);">
<g>
	<path d="M0,500h500V0C223.861,0.001,0,223.854,0,500z"/>
</g>
</g></g><g transform="translate(84,21) scale(0.07,0.07)"><g transform="" style="fill: rgb(255, 255, 255);">
<rect width="100" height="100"/>
</g></g><g transform="translate(91,21) scale(0.014,0.014)"><g transform="" style="fill: rgb(255, 255, 255);">
<path d="M250,500c-58.271,0-250,0-250,0s0-170.207,0-250C0,187.676,0,0,0,0s174.261,0,250,0c138.064,0,250,111.929,250,250
	C500,388.064,388.064,500,250,500z"/>
</g></g><g transform="translate(119,21) scale(0.014,0.014)"><g transform="" style="fill: rgb(255, 255, 255);">
<path d="M0,250C0,191.729,0,0,0,0s170.201,0,250,0c62.324,0,250,0,250,0s0,174.261,0,250c0,138.064-111.936,250-250,250
	C111.929,500,0,388.064,0,250z"/>
</g></g><g transform="translate(154,21) scale(0.014,0.014)"><g transform="" style="fill: rgb(255, 255, 255);">
<path d="M250,0c138.077,0,250,111.93,250,250c0,138.077-111.923,250-250,250C111.93,500,0,388.077,0,250C0,111.93,111.93,0,250,0z"
	/>
</g></g><g transform="translate(168,21) scale(0.014,0.014)"><g transform="" style="fill: rgb(255, 255, 255);">
<path d="M250,0c138.077,0,250,111.93,250,250c0,138.077-111.923,250-250,250C111.93,500,0,388.077,0,250C0,111.93,111.93,0,250,0z"
	/>
</g></g><g transform="translate(70,28) scale(0.014,0.014)"><g transform="" style="fill: rgb(255, 255, 255);">
<path d="M250,0c58.27,0,250,0,250,0s0,170.182,0,250c0,62.305,0,250,0,250s-174.219,0-250,0
	C111.881,500,0,388.021,0,250C0,111.963,111.881,0,250,0z"/>
</g></g><g transform="translate(77,28) scale(0.07,0.07)"><g transform="" style="fill: rgb(255, 255, 255);">
<rect width="100" height="100"/>
</g></g><g transform="translate(84,28) scale(0.07,0.07)"><g transform="" style="fill: rgb(255, 255, 255);">
<rect width="100" height="100"/>
</g></g><g transform="translate(112,28) scale(0.014,0.014)"><g transform="" style="fill: rgb(255, 255, 255);">
<path d="M250,0c138.077,0,250,111.93,250,250c0,138.077-111.923,250-250,250C111.93,500,0,388.077,0,250C0,111.93,111.93,0,250,0z"
	/>
</g></g><g transform="translate(133,28) scale(0.014,0.014)"><g transform="" style="fill: rgb(255, 255, 255);">
<path d="M250,0c138.077,0,250,111.93,250,250c0,138.077-111.923,250-250,250C111.93,500,0,388.077,0,250C0,111.93,111.93,0,250,0z"
	/>
</g></g><g transform="translate(161,28) scale(0.014,0.014)"><g transform="" style="fill: rgb(255, 255, 255);">
<path d="M250,0c138.077,0,250,111.93,250,250c0,138.077-111.923,250-250,250C111.93,500,0,388.077,0,250C0,111.93,111.93,0,250,0z"
	/>
</g></g><g transform="translate(56,35) scale(0.014,0.014)"><g transform="" style="fill: rgb(255, 255, 255);">
<path d="M500,250c0,58.266,0,250,0,250s-170.194,0-250-0.012c-62.324,0.012-250,0-250,0s0-174.241,0-249.994
	C0.006,111.931,111.929,0,249.994,0C388.064,0,500,111.93,500,250z"/>
</g></g><g transform="translate(77,35) scale(0.014,0.014)"><g transform="" style="fill: rgb(255, 255, 255);">
<g>
	<path d="M500,500V0H0C0.001,276.142,223.853,500,500,500z"/>
</g>
</g></g><g transform="translate(84,35) scale(0.07,0.07)"><g transform="" style="fill: rgb(255, 255, 255);">
<rect width="100" height="100"/>
</g></g><g transform="translate(91,35) scale(0.014,0.014)"><g transform="" style="fill: rgb(255, 255, 255);">
<path d="M250,500c-58.271,0-250,0-250,0s0-170.207,0-250C0,187.676,0,0,0,0s174.261,0,250,0c138.064,0,250,111.929,250,250
	C500,388.064,388.064,500,250,500z"/>
</g></g><g transform="translate(126,35) scale(0.014,0.014)"><g transform="" style="fill: rgb(255, 255, 255);">
<path d="M500,250c0,58.266,0,250,0,250s-170.194,0-250-0.012c-62.324,0.012-250,0-250,0s0-174.241,0-249.994
	C0.006,111.931,111.929,0,249.994,0C388.064,0,500,111.93,500,250z"/>
</g></g><g transform="translate(140,35) scale(0.014,0.014)"><g transform="" style="fill: rgb(255, 255, 255);">
<g>
	<path d="M0,500h500V0C223.861,0.001,0,223.854,0,500z"/>
</g>
</g></g><g transform="translate(147,35) scale(0.014,0.014)"><g transform="" style="fill: rgb(255, 255, 255);">
<path d="M250,500c-58.271,0-250,0-250,0s0-170.207,0-250C0,187.676,0,0,0,0s174.261,0,250,0c138.064,0,250,111.929,250,250
	C500,388.064,388.064,500,250,500z"/>
</g></g><g transform="translate(168,35) scale(0.014,0.014)"><g transform="" style="fill: rgb(255, 255, 255);">
<path d="M500,250c0,58.266,0,250,0,250s-170.194,0-250-0.012c-62.324,0.012-250,0-250,0s0-174.241,0-249.994
	C0.006,111.931,111.929,0,249.994,0C388.064,0,500,111.93,500,250z"/>
</g></g><g transform="translate(56,42) scale(0.014,0.014)"><g transform="" style="fill: rgb(255, 255, 255);">
<path d="M0,250C0,191.729,0,0,0,0s170.201,0,250,0c62.324,0,250,0,250,0s0,174.261,0,250c0,138.064-111.936,250-250,250
	C111.929,500,0,388.064,0,250z"/>
</g></g><g transform="translate(70,42) scale(0.014,0.014)"><g transform="" style="fill: rgb(255, 255, 255);">
<path d="M250,0c138.077,0,250,111.93,250,250c0,138.077-111.923,250-250,250C111.93,500,0,388.077,0,250C0,111.93,111.93,0,250,0z"
	/>
</g></g><g transform="translate(84,42) scale(0.014,0.014)"><g transform="" style="fill: rgb(255, 255, 255);">
<path d="M0,250C0,191.729,0,0,0,0s170.201,0,250,0c62.324,0,250,0,250,0s0,174.261,0,250c0,138.064-111.936,250-250,250
	C111.929,500,0,388.064,0,250z"/>
</g></g><g transform="translate(98,42) scale(0.014,0.014)"><g transform="" style="fill: rgb(255, 255, 255);">
<path d="M500,250c0,58.266,0,250,0,250s-170.194,0-250-0.012c-62.324,0.012-250,0-250,0s0-174.241,0-249.994
	C0.006,111.931,111.929,0,249.994,0C388.064,0,500,111.93,500,250z"/>
</g></g><g transform="translate(112,42) scale(0.014,0.014)"><g transform="" style="fill: rgb(255, 255, 255);">
<path d="M250,0c138.077,0,250,111.93,250,250c0,138.077-111.923,250-250,250C111.93,500,0,388.077,0,250C0,111.93,111.93,0,250,0z"
	/>
</g></g><g transform="translate(126,42) scale(0.014,0.014)"><g transform="" style="fill: rgb(255, 255, 255);">
<path d="M0,250C0,191.729,0,0,0,0s170.201,0,250,0c62.324,0,250,0,250,0s0,174.261,0,250c0,138.064-111.936,250-250,250
	C111.929,500,0,388.064,0,250z"/>
</g></g><g transform="translate(140,42) scale(0.07,0.07)"><g transform="" style="fill: rgb(255, 255, 255);">
<rect width="100" height="100"/>
</g></g><g transform="translate(154,42) scale(0.014,0.014)"><g transform="" style="fill: rgb(255, 255, 255);">
<path d="M250,0c138.077,0,250,111.93,250,250c0,138.077-111.923,250-250,250C111.93,500,0,388.077,0,250C0,111.93,111.93,0,250,0z"
	/>
</g></g><g transform="translate(168,42) scale(0.014,0.014)"><g transform="" style="fill: rgb(255, 255, 255);">
<path d="M0,250C0,191.729,0,0,0,0s170.201,0,250,0c62.324,0,250,0,250,0s0,174.261,0,250c0,138.064-111.936,250-250,250
	C111.929,500,0,388.064,0,250z"/>
</g></g><g transform="translate(63,49) scale(0.014,0.014)"><g transform="" style="fill: rgb(255, 255, 255);">
<path d="M500,250c0,58.266,0,250,0,250s-170.194,0-250-0.012c-62.324,0.012-250,0-250,0s0-174.241,0-249.994
	C0.006,111.931,111.929,0,249.994,0C388.064,0,500,111.93,500,250z"/>
</g></g><g transform="translate(98,49) scale(0.07,0.07)"><g transform="" style="fill: rgb(255, 255, 255);">
<rect width="100" height="100"/>
</g></g><g transform="translate(119,49) scale(0.014,0.014)"><g transform="" style="fill: rgb(255, 255, 255);">
<path d="M250,0c138.077,0,250,111.93,250,250c0,138.077-111.923,250-250,250C111.93,500,0,388.077,0,250C0,111.93,111.93,0,250,0z"
	/>
</g></g><g transform="translate(133,49) scale(0.014,0.014)"><g transform="" style="fill: rgb(255, 255, 255);">
<g>
	<path d="M0,500h500V0C223.861,0.001,0,223.854,0,500z"/>
</g>
</g></g><g transform="translate(140,49) scale(0.07,0.07)"><g transform="" style="fill: rgb(255, 255, 255);">
<rect width="100" height="100"/>
</g></g><g transform="translate(147,49) scale(0.014,0.014)"><g transform="" style="fill: rgb(255, 255, 255);">
<g>
	<path d="M0,0v500h500C500,223.853,276.142,0,0,0z"/>
</g>
</g></g><g transform="translate(161,49) scale(0.014,0.014)"><g transform="" style="fill: rgb(255, 255, 255);">
<path d="M250,0c138.077,0,250,111.93,250,250c0,138.077-111.923,250-250,250C111.93,500,0,388.077,0,250C0,111.93,111.93,0,250,0z"
	/>
</g></g><g transform="translate(0,56) scale(0.014,0.014)"><g transform="" style="fill: rgb(255, 255, 255);">
<path d="M250,0c138.077,0,250,111.93,250,250c0,138.077-111.923,250-250,250C111.93,500,0,388.077,0,250C0,111.93,111.93,0,250,0z"
	/>
</g></g><g transform="translate(21,56) scale(0.014,0.014)"><g transform="" style="fill: rgb(255, 255, 255);">
<path d="M500,250c0,58.266,0,250,0,250s-170.194,0-250-0.012c-62.324,0.012-250,0-250,0s0-174.241,0-249.994
	C0.006,111.931,111.929,0,249.994,0C388.064,0,500,111.93,500,250z"/>
</g></g><g transform="translate(35,56) scale(0.014,0.014)"><g transform="" style="fill: rgb(255, 255, 255);">
<g>
	<path d="M0,500h500V0C223.861,0.001,0,223.854,0,500z"/>
</g>
</g></g><g transform="translate(42,56) scale(0.014,0.014)"><g transform="" style="fill: rgb(255, 255, 255);">
<path d="M250,500c-58.271,0-250,0-250,0s0-170.207,0-250C0,187.676,0,0,0,0s174.261,0,250,0c138.064,0,250,111.929,250,250
	C500,388.064,388.064,500,250,500z"/>
</g></g><g transform="translate(56,56) scale(0.014,0.014)"><g transform="" style="fill: rgb(255, 255, 255);">
<g>
	<path d="M0,500h500V0C223.861,0.001,0,223.854,0,500z"/>
</g>
</g></g><g transform="translate(63,56) scale(0.014,0.014)"><g transform="" style="fill: rgb(255, 255, 255);">
<g>
	<path d="M500,0H0v500C276.142,500,500,276.142,500,0z"/>
</g>
</g></g><g transform="translate(84,56) scale(0.014,0.014)"><g transform="" style="fill: rgb(255, 255, 255);">
<g>
	<path d="M0,500h500V0C223.861,0.001,0,223.854,0,500z"/>
</g>
</g></g><g transform="translate(91,56) scale(0.07,0.07)"><g transform="" style="fill: rgb(255, 255, 255);">
<rect width="100" height="100"/>
</g></g><g transform="translate(98,56) scale(0.07,0.07)"><g transform="" style="fill: rgb(255, 255, 255);">
<rect width="100" height="100"/>
</g></g><g transform="translate(105,56) scale(0.07,0.07)"><g transform="" style="fill: rgb(255, 255, 255);">
<rect width="100" height="100"/>
</g></g><g transform="translate(112,56) scale(0.014,0.014)"><g transform="" style="fill: rgb(255, 255, 255);">
<path d="M250,500c-58.271,0-250,0-250,0s0-170.207,0-250C0,187.676,0,0,0,0s174.261,0,250,0c138.064,0,250,111.929,250,250
	C500,388.064,388.064,500,250,500z"/>
</g></g><g transform="translate(133,56) scale(0.014,0.014)"><g transform="" style="fill: rgb(255, 255, 255);">
<path d="M0,250C0,191.729,0,0,0,0s170.201,0,250,0c62.324,0,250,0,250,0s0,174.261,0,250c0,138.064-111.936,250-250,250
	C111.929,500,0,388.064,0,250z"/>
</g></g><g transform="translate(147,56) scale(0.014,0.014)"><g transform="" style="fill: rgb(255, 255, 255);">
<path d="M0,250C0,191.729,0,0,0,0s170.201,0,250,0c62.324,0,250,0,250,0s0,174.261,0,250c0,138.064-111.936,250-250,250
	C111.929,500,0,388.064,0,250z"/>
</g></g><g transform="translate(168,56) scale(0.014,0.014)"><g transform="" style="fill: rgb(255, 255, 255);">
<g>
	<path d="M0,500h500V0C223.861,0.001,0,223.854,0,500z"/>
</g>
</g></g><g transform="translate(175,56) scale(0.014,0.014)"><g transform="" style="fill: rgb(255, 255, 255);">
<g>
	<path d="M0,0v500h500C500,223.853,276.142,0,0,0z"/>
</g>
</g></g><g transform="translate(189,56) scale(0.014,0.014)"><g transform="" style="fill: rgb(255, 255, 255);">
<path d="M500,250c0,58.266,0,250,0,250s-170.194,0-250-0.012c-62.324,0.012-250,0-250,0s0-174.241,0-249.994
	C0.006,111.931,111.929,0,249.994,0C388.064,0,500,111.93,500,250z"/>
</g></g><g transform="translate(14,63) scale(0.014,0.014)"><g transform="" style="fill: rgb(255, 255, 255);">
<g>
	<path d="M0,500h500V0C223.861,0.001,0,223.854,0,500z"/>
</g>
</g></g><g transform="translate(21,63) scale(0.07,0.07)"><g transform="" style="fill: rgb(255, 255, 255);">
<rect width="100" height="100"/>
</g></g><g transform="translate(28,63) scale(0.07,0.07)"><g transform="" style="fill: rgb(255, 255, 255);">
<rect width="100" height="100"/>
</g></g><g transform="translate(35,63) scale(0.07,0.07)"><g transform="" style="fill: rgb(255, 255, 255);">
<rect width="100" height="100"/>
</g></g><g transform="translate(49,63) scale(0.014,0.014)"><g transform="" style="fill: rgb(255, 255, 255);">
<g>
	<path d="M0,500h500V0C223.861,0.001,0,223.854,0,500z"/>
</g>
</g></g><g transform="translate(56,63) scale(0.014,0.014)"><g transform="" style="fill: rgb(255, 255, 255);">
<g>
	<path d="M500,0H0v500C276.142,500,500,276.142,500,0z"/>
</g>
</g></g><g transform="translate(84,63) scale(0.07,0.07)"><g transform="" style="fill: rgb(255, 255, 255);">
<rect width="100" height="100"/>
</g></g><g transform="translate(98,63) scale(0.014,0.014)"><g transform="" style="fill: rgb(255, 255, 255);">
<path d="M0,250C0,191.729,0,0,0,0s170.201,0,250,0c62.324,0,250,0,250,0s0,174.261,0,250c0,138.064-111.936,250-250,250
	C111.929,500,0,388.064,0,250z"/>
</g></g><g transform="translate(140,63) scale(0.014,0.014)"><g transform="" style="fill: rgb(255, 255, 255);">
<path d="M250,0c138.077,0,250,111.93,250,250c0,138.077-111.923,250-250,250C111.93,500,0,388.077,0,250C0,111.93,111.93,0,250,0z"
	/>
</g></g><g transform="translate(168,63) scale(0.07,0.07)"><g transform="" style="fill: rgb(255, 255, 255);">
<rect width="100" height="100"/>
</g></g><g transform="translate(175,63) scale(0.07,0.07)"><g transform="" style="fill: rgb(255, 255, 255);">
<rect width="100" height="100"/>
</g></g><g transform="translate(182,63) scale(0.07,0.07)"><g transform="" style="fill: rgb(255, 255, 255);">
<rect width="100" height="100"/>
</g></g><g transform="translate(189,63) scale(0.07,0.07)"><g transform="" style="fill: rgb(255, 255, 255);">
<rect width="100" height="100"/>
</g></g><g transform="translate(217,63) scale(0.014,0.014)"><g transform="" style="fill: rgb(255, 255, 255);">
<path d="M250,0c58.27,0,250,0,250,0s0,170.182,0,250c0,62.305,0,250,0,250s-174.219,0-250,0
	C111.881,500,0,388.021,0,250C0,111.963,111.881,0,250,0z"/>
</g></g><g transform="translate(224,63) scale(0.014,0.014)"><g transform="" style="fill: rgb(255, 255, 255);">
<g>
	<path d="M0,0v500h500C500,223.853,276.142,0,0,0z"/>
</g>
</g></g><g transform="translate(0,70) scale(0.014,0.014)"><g transform="" style="fill: rgb(255, 255, 255);">
<g>
	<path d="M0,500h500V0C223.861,0.001,0,223.854,0,500z"/>
</g>
</g></g><g transform="translate(7,70) scale(0.07,0.07)"><g transform="" style="fill: rgb(255, 255, 255);">
<rect width="100" height="100"/>
</g></g><g transform="translate(14,70) scale(0.07,0.07)"><g transform="" style="fill: rgb(255, 255, 255);">
<rect width="100" height="100"/>
</g></g><g transform="translate(28,70) scale(0.07,0.07)"><g transform="" style="fill: rgb(255, 255, 255);">
<rect width="100" height="100"/>
</g></g><g transform="translate(35,70) scale(0.07,0.07)"><g transform="" style="fill: rgb(255, 255, 255);">
<rect width="100" height="100"/>
</g></g><g transform="translate(42,70) scale(0.07,0.07)"><g transform="" style="fill: rgb(255, 255, 255);">
<rect width="100" height="100"/>
</g></g><g transform="translate(49,70) scale(0.014,0.014)"><g transform="" style="fill: rgb(255, 255, 255);">
<g>
	<path d="M500,0H0v500C276.142,500,500,276.142,500,0z"/>
</g>
</g></g><g transform="translate(70,70) scale(0.014,0.014)"><g transform="" style="fill: rgb(255, 255, 255);">
<g>
	<path d="M0,500h500V0C223.861,0.001,0,223.854,0,500z"/>
</g>
</g></g><g transform="translate(77,70) scale(0.07,0.07)"><g transform="" style="fill: rgb(255, 255, 255);">
<rect width="100" height="100"/>
</g></g><g transform="translate(84,70) scale(0.07,0.07)"><g transform="" style="fill: rgb(255, 255, 255);">
<rect width="100" height="100"/>
</g></g><g transform="translate(112,70) scale(0.014,0.014)"><g transform="" style="fill: rgb(255, 255, 255);">
<g>
	<path d="M0,500h500V0C223.861,0.001,0,223.854,0,500z"/>
</g>
</g></g><g transform="translate(119,70) scale(0.014,0.014)"><g transform="" style="fill: rgb(255, 255, 255);">
<g>
	<path d="M0,0v500h500C500,223.853,276.142,0,0,0z"/>
</g>
</g></g><g transform="translate(133,70) scale(0.014,0.014)"><g transform="" style="fill: rgb(255, 255, 255);">
<path d="M250,0c138.077,0,250,111.93,250,250c0,138.077-111.923,250-250,250C111.93,500,0,388.077,0,250C0,111.93,111.93,0,250,0z"
	/>
</g></g><g transform="translate(168,70) scale(0.07,0.07)"><g transform="" style="fill: rgb(255, 255, 255);">
<rect width="100" height="100"/>
</g></g><g transform="translate(189,70) scale(0.014,0.014)"><g transform="" style="fill: rgb(255, 255, 255);">
<g>
	<path d="M500,500V0H0C0.001,276.142,223.853,500,500,500z"/>
</g>
</g></g><g transform="translate(196,70) scale(0.014,0.014)"><g transform="" style="fill: rgb(255, 255, 255);">
<g>
	<path d="M0,0v500h500C500,223.853,276.142,0,0,0z"/>
</g>
</g></g><g transform="translate(210,70) scale(0.014,0.014)"><g transform="" style="fill: rgb(255, 255, 255);">
<path d="M250,0c138.077,0,250,111.93,250,250c0,138.077-111.923,250-250,250C111.93,500,0,388.077,0,250C0,111.93,111.93,0,250,0z"
	/>
</g></g><g transform="translate(224,70) scale(0.014,0.014)"><g transform="" style="fill: rgb(255, 255, 255);">
<path d="M0,250C0,191.729,0,0,0,0s170.201,0,250,0c62.324,0,250,0,250,0s0,174.261,0,250c0,138.064-111.936,250-250,250
	C111.929,500,0,388.064,0,250z"/>
</g></g><g transform="translate(0,77) scale(0.014,0.014)"><g transform="" style="fill: rgb(255, 255, 255);">
<path d="M0,250C0,191.729,0,0,0,0s170.201,0,250,0c62.324,0,250,0,250,0s0,174.261,0,250c0,138.064-111.936,250-250,250
	C111.929,500,0,388.064,0,250z"/>
</g></g><g transform="translate(14,77) scale(0.07,0.07)"><g transform="" style="fill: rgb(255, 255, 255);">
<rect width="100" height="100"/>
</g></g><g transform="translate(28,77) scale(0.07,0.07)"><g transform="" style="fill: rgb(255, 255, 255);">
<rect width="100" height="100"/>
</g></g><g transform="translate(56,77) scale(0.014,0.014)"><g transform="" style="fill: rgb(255, 255, 255);">
<path d="M250,0c58.27,0,250,0,250,0s0,170.182,0,250c0,62.305,0,250,0,250s-174.219,0-250,0
	C111.881,500,0,388.021,0,250C0,111.963,111.881,0,250,0z"/>
</g></g><g transform="translate(63,77) scale(0.07,0.07)"><g transform="" style="fill: rgb(255, 255, 255);">
<rect width="100" height="100"/>
</g></g><g transform="translate(70,77) scale(0.07,0.07)"><g transform="" style="fill: rgb(255, 255, 255);">
<rect width="100" height="100"/>
</g></g><g transform="translate(84,77) scale(0.07,0.07)"><g transform="" style="fill: rgb(255, 255, 255);">
<rect width="100" height="100"/>
</g></g><g transform="translate(98,77) scale(0.014,0.014)"><g transform="" style="fill: rgb(255, 255, 255);">
<path d="M250,0c138.077,0,250,111.93,250,250c0,138.077-111.923,250-250,250C111.93,500,0,388.077,0,250C0,111.93,111.93,0,250,0z"
	/>
</g></g><g transform="translate(112,77) scale(0.014,0.014)"><g transform="" style="fill: rgb(255, 255, 255);">
<g>
	<path d="M500,500V0H0C0.001,276.142,223.853,500,500,500z"/>
</g>
</g></g><g transform="translate(119,77) scale(0.014,0.014)"><g transform="" style="fill: rgb(255, 255, 255);">
<g>
	<path d="M500,0H0v500C276.142,500,500,276.142,500,0z"/>
</g>
</g></g><g transform="translate(147,77) scale(0.014,0.014)"><g transform="" style="fill: rgb(255, 255, 255);">
<path d="M500,250c0,58.266,0,250,0,250s-170.194,0-250-0.012c-62.324,0.012-250,0-250,0s0-174.241,0-249.994
	C0.006,111.931,111.929,0,249.994,0C388.064,0,500,111.93,500,250z"/>
</g></g><g transform="translate(168,77) scale(0.07,0.07)"><g transform="" style="fill: rgb(255, 255, 255);">
<rect width="100" height="100"/>
</g></g><g transform="translate(182,77) scale(0.014,0.014)"><g transform="" style="fill: rgb(255, 255, 255);">
<path d="M500,250c0,58.266,0,250,0,250s-170.194,0-250-0.012c-62.324,0.012-250,0-250,0s0-174.241,0-249.994
	C0.006,111.931,111.929,0,249.994,0C388.064,0,500,111.93,500,250z"/>
</g></g><g transform="translate(196,77) scale(0.014,0.014)"><g transform="" style="fill: rgb(255, 255, 255);">
<g>
	<path d="M500,500V0H0C0.001,276.142,223.853,500,500,500z"/>
</g>
</g></g><g transform="translate(203,77) scale(0.014,0.014)"><g transform="" style="fill: rgb(255, 255, 255);">
<g>
	<path d="M0,0v500h500C500,223.853,276.142,0,0,0z"/>
</g>
</g></g><g transform="translate(217,77) scale(0.014,0.014)"><g transform="" style="fill: rgb(255, 255, 255);">
<path d="M250,0c138.077,0,250,111.93,250,250c0,138.077-111.923,250-250,250C111.93,500,0,388.077,0,250C0,111.93,111.93,0,250,0z"
	/>
</g></g><g transform="translate(14,84) scale(0.07,0.07)"><g transform="" style="fill: rgb(255, 255, 255);">
<rect width="100" height="100"/>
</g></g><g transform="translate(28,84) scale(0.014,0.014)"><g transform="" style="fill: rgb(255, 255, 255);">
<path d="M0,250C0,191.729,0,0,0,0s170.201,0,250,0c62.324,0,250,0,250,0s0,174.261,0,250c0,138.064-111.936,250-250,250
	C111.929,500,0,388.064,0,250z"/>
</g></g><g transform="translate(42,84) scale(0.014,0.014)"><g transform="" style="fill: rgb(255, 255, 255);">
<path d="M250,0c138.077,0,250,111.93,250,250c0,138.077-111.923,250-250,250C111.93,500,0,388.077,0,250C0,111.93,111.93,0,250,0z"
	/>
</g></g><g transform="translate(70,84) scale(0.07,0.07)"><g transform="" style="fill: rgb(255, 255, 255);">
<rect width="100" height="100"/>
</g></g><g transform="translate(77,84) scale(0.07,0.07)"><g transform="" style="fill: rgb(255, 255, 255);">
<rect width="100" height="100"/>
</g></g><g transform="translate(84,84) scale(0.014,0.014)"><g transform="" style="fill: rgb(255, 255, 255);">
<g>
	<path d="M500,0H0v500C276.142,500,500,276.142,500,0z"/>
</g>
</g></g><g transform="translate(105,84) scale(0.014,0.014)"><g transform="" style="fill: rgb(255, 255, 255);">
<path d="M500,250c0,58.266,0,250,0,250s-170.194,0-250-0.012c-62.324,0.012-250,0-250,0s0-174.241,0-249.994
	C0.006,111.931,111.929,0,249.994,0C388.064,0,500,111.93,500,250z"/>
</g></g><g transform="translate(147,84) scale(0.014,0.014)"><g transform="" style="fill: rgb(255, 255, 255);">
<g>
	<path d="M500,500V0H0C0.001,276.142,223.853,500,500,500z"/>
</g>
</g></g><g transform="translate(154,84) scale(0.014,0.014)"><g transform="" style="fill: rgb(255, 255, 255);">
<g>
	<path d="M0,0v500h500C500,223.853,276.142,0,0,0z"/>
</g>
</g></g><g transform="translate(168,84) scale(0.07,0.07)"><g transform="" style="fill: rgb(255, 255, 255);">
<rect width="100" height="100"/>
</g></g><g transform="translate(175,84) scale(0.07,0.07)"><g transform="" style="fill: rgb(255, 255, 255);">
<rect width="100" height="100"/>
</g></g><g transform="translate(182,84) scale(0.07,0.07)"><g transform="" style="fill: rgb(255, 255, 255);">
<rect width="100" height="100"/>
</g></g><g transform="translate(203,84) scale(0.014,0.014)"><g transform="" style="fill: rgb(255, 255, 255);">
<path d="M0,250C0,191.729,0,0,0,0s170.201,0,250,0c62.324,0,250,0,250,0s0,174.261,0,250c0,138.064-111.936,250-250,250
	C111.929,500,0,388.064,0,250z"/>
</g></g><g transform="translate(224,84) scale(0.014,0.014)"><g transform="" style="fill: rgb(255, 255, 255);">
<path d="M500,250c0,58.266,0,250,0,250s-170.194,0-250-0.012c-62.324,0.012-250,0-250,0s0-174.241,0-249.994
	C0.006,111.931,111.929,0,249.994,0C388.064,0,500,111.93,500,250z"/>
</g></g><g transform="translate(14,91) scale(0.014,0.014)"><g transform="" style="fill: rgb(255, 255, 255);">
<path d="M0,250C0,191.729,0,0,0,0s170.201,0,250,0c62.324,0,250,0,250,0s0,174.261,0,250c0,138.064-111.936,250-250,250
	C111.929,500,0,388.064,0,250z"/>
</g></g><g transform="translate(35,91) scale(0.014,0.014)"><g transform="" style="fill: rgb(255, 255, 255);">
<path d="M250,0c138.077,0,250,111.93,250,250c0,138.077-111.923,250-250,250C111.93,500,0,388.077,0,250C0,111.93,111.93,0,250,0z"
	/>
</g></g><g transform="translate(70,91) scale(0.014,0.014)"><g transform="" style="fill: rgb(255, 255, 255);">
<g>
	<path d="M500,500V0H0C0.001,276.142,223.853,500,500,500z"/>
</g>
</g></g><g transform="translate(77,91) scale(0.014,0.014)"><g transform="" style="fill: rgb(255, 255, 255);">
<g>
	<path d="M500,0H0v500C276.142,500,500,276.142,500,0z"/>
</g>
</g></g><g transform="translate(105,91) scale(0.014,0.014)"><g transform="" style="fill: rgb(255, 255, 255);">
<g>
	<path d="M500,500V0H0C0.001,276.142,223.853,500,500,500z"/>
</g>
</g></g><g transform="translate(112,91) scale(0.014,0.014)"><g transform="" style="fill: rgb(255, 255, 255);">
<path d="M250,500c-58.271,0-250,0-250,0s0-170.207,0-250C0,187.676,0,0,0,0s174.261,0,250,0c138.064,0,250,111.929,250,250
	C500,388.064,388.064,500,250,500z"/>
</g></g><g transform="translate(154,91) scale(0.014,0.014)"><g transform="" style="fill: rgb(255, 255, 255);">
<path d="M0,250C0,191.729,0,0,0,0s170.201,0,250,0c62.324,0,250,0,250,0s0,174.261,0,250c0,138.064-111.936,250-250,250
	C111.929,500,0,388.064,0,250z"/>
</g></g><g transform="translate(168,91) scale(0.07,0.07)"><g transform="" style="fill: rgb(255, 255, 255);">
<rect width="100" height="100"/>
</g></g><g transform="translate(175,91) scale(0.07,0.07)"><g transform="" style="fill: rgb(255, 255, 255);">
<rect width="100" height="100"/>
</g></g><g transform="translate(182,91) scale(0.07,0.07)"><g transform="" style="fill: rgb(255, 255, 255);">
<rect width="100" height="100"/>
</g></g><g transform="translate(189,91) scale(0.07,0.07)"><g transform="" style="fill: rgb(255, 255, 255);">
<rect width="100" height="100"/>
</g></g><g transform="translate(196,91) scale(0.014,0.014)"><g transform="" style="fill: rgb(255, 255, 255);">
<g>
	<path d="M0,0v500h500C500,223.853,276.142,0,0,0z"/>
</g>
</g></g><g transform="translate(217,91) scale(0.014,0.014)"><g transform="" style="fill: rgb(255, 255, 255);">
<g>
	<path d="M0,500h500V0C223.861,0.001,0,223.854,0,500z"/>
</g>
</g></g><g transform="translate(224,91) scale(0.014,0.014)"><g transform="" style="fill: rgb(255, 255, 255);">
<g>
	<path d="M500,0H0v500C276.142,500,500,276.142,500,0z"/>
</g>
</g></g><g transform="translate(7,98) scale(0.014,0.014)"><g transform="" style="fill: rgb(255, 255, 255);">
<path d="M250,0c138.077,0,250,111.93,250,250c0,138.077-111.923,250-250,250C111.93,500,0,388.077,0,250C0,111.93,111.93,0,250,0z"
	/>
</g></g><g transform="translate(21,98) scale(0.014,0.014)"><g transform="" style="fill: rgb(255, 255, 255);">
<path d="M500,250c0,58.266,0,250,0,250s-170.194,0-250-0.012c-62.324,0.012-250,0-250,0s0-174.241,0-249.994
	C0.006,111.931,111.929,0,249.994,0C388.064,0,500,111.93,500,250z"/>
</g></g><g transform="translate(42,98) scale(0.014,0.014)"><g transform="" style="fill: rgb(255, 255, 255);">
<path d="M250,0c138.077,0,250,111.93,250,250c0,138.077-111.923,250-250,250C111.93,500,0,388.077,0,250C0,111.93,111.93,0,250,0z"
	/>
</g></g><g transform="translate(56,98) scale(0.014,0.014)"><g transform="" style="fill: rgb(255, 255, 255);">
<path d="M500,250c0,58.266,0,250,0,250s-170.194,0-250-0.012c-62.324,0.012-250,0-250,0s0-174.241,0-249.994
	C0.006,111.931,111.929,0,249.994,0C388.064,0,500,111.93,500,250z"/>
</g></g><g transform="translate(84,98) scale(0.014,0.014)"><g transform="" style="fill: rgb(255, 255, 255);">
<path d="M250,0c138.077,0,250,111.93,250,250c0,138.077-111.923,250-250,250C111.93,500,0,388.077,0,250C0,111.93,111.93,0,250,0z"
	/>
</g></g><g transform="translate(98,98) scale(0.014,0.014)"><g transform="" style="fill: rgb(255, 255, 255);">
<path d="M500,250c0,58.266,0,250,0,250s-170.194,0-250-0.012c-62.324,0.012-250,0-250,0s0-174.241,0-249.994
	C0.006,111.931,111.929,0,249.994,0C388.064,0,500,111.93,500,250z"/>
</g></g><g transform="translate(119,98) scale(0.014,0.014)"><g transform="" style="fill: rgb(255, 255, 255);">
<g>
	<path d="M0,500h500V0C223.861,0.001,0,223.854,0,500z"/>
</g>
</g></g><g transform="translate(126,98) scale(0.014,0.014)"><g transform="" style="fill: rgb(255, 255, 255);">
<path d="M250,500c-58.271,0-250,0-250,0s0-170.207,0-250C0,187.676,0,0,0,0s174.261,0,250,0c138.064,0,250,111.929,250,250
	C500,388.064,388.064,500,250,500z"/>
</g></g><g transform="translate(140,98) scale(0.014,0.014)"><g transform="" style="fill: rgb(255, 255, 255);">
<path d="M250,0c138.077,0,250,111.93,250,250c0,138.077-111.923,250-250,250C111.93,500,0,388.077,0,250C0,111.93,111.93,0,250,0z"
	/>
</g></g><g transform="translate(161,98) scale(0.014,0.014)"><g transform="" style="fill: rgb(255, 255, 255);">
<path d="M250,0c58.27,0,250,0,250,0s0,170.182,0,250c0,62.305,0,250,0,250s-174.219,0-250,0
	C111.881,500,0,388.021,0,250C0,111.963,111.881,0,250,0z"/>
</g></g><g transform="translate(168,98) scale(0.07,0.07)"><g transform="" style="fill: rgb(255, 255, 255);">
<rect width="100" height="100"/>
</g></g><g transform="translate(175,98) scale(0.07,0.07)"><g transform="" style="fill: rgb(255, 255, 255);">
<rect width="100" height="100"/>
</g></g><g transform="translate(182,98) scale(0.07,0.07)"><g transform="" style="fill: rgb(255, 255, 255);">
<rect width="100" height="100"/>
</g></g><g transform="translate(189,98) scale(0.07,0.07)"><g transform="" style="fill: rgb(255, 255, 255);">
<rect width="100" height="100"/>
</g></g><g transform="translate(196,98) scale(0.014,0.014)"><g transform="" style="fill: rgb(255, 255, 255);">
<g>
	<path d="M500,0H0v500C276.142,500,500,276.142,500,0z"/>
</g>
</g></g><g transform="translate(210,98) scale(0.014,0.014)"><g transform="" style="fill: rgb(255, 255, 255);">
<path d="M250,0c58.27,0,250,0,250,0s0,170.182,0,250c0,62.305,0,250,0,250s-174.219,0-250,0
	C111.881,500,0,388.021,0,250C0,111.963,111.881,0,250,0z"/>
</g></g><g transform="translate(217,98) scale(0.07,0.07)"><g transform="" style="fill: rgb(255, 255, 255);">
<rect width="100" height="100"/>
</g></g><g transform="translate(0,105) scale(0.014,0.014)"><g transform="" style="fill: rgb(255, 255, 255);">
<path d="M250,0c138.077,0,250,111.93,250,250c0,138.077-111.923,250-250,250C111.93,500,0,388.077,0,250C0,111.93,111.93,0,250,0z"
	/>
</g></g><g transform="translate(21,105) scale(0.07,0.07)"><g transform="" style="fill: rgb(255, 255, 255);">
<rect width="100" height="100"/>
</g></g><g transform="translate(49,105) scale(0.014,0.014)"><g transform="" style="fill: rgb(255, 255, 255);">
<g>
	<path d="M0,500h500V0C223.861,0.001,0,223.854,0,500z"/>
</g>
</g></g><g transform="translate(56,105) scale(0.07,0.07)"><g transform="" style="fill: rgb(255, 255, 255);">
<rect width="100" height="100"/>
</g></g><g transform="translate(70,105) scale(0.014,0.014)"><g transform="" style="fill: rgb(255, 255, 255);">
<path d="M250,0c138.077,0,250,111.93,250,250c0,138.077-111.923,250-250,250C111.93,500,0,388.077,0,250C0,111.93,111.93,0,250,0z"
	/>
</g></g><g transform="translate(91,105) scale(0.014,0.014)"><g transform="" style="fill: rgb(255, 255, 255);">
<g>
	<path d="M0,500h500V0C223.861,0.001,0,223.854,0,500z"/>
</g>
</g></g><g transform="translate(98,105) scale(0.07,0.07)"><g transform="" style="fill: rgb(255, 255, 255);">
<rect width="100" height="100"/>
</g></g><g transform="translate(105,105) scale(0.014,0.014)"><g transform="" style="fill: rgb(255, 255, 255);">
<path d="M250,500c-58.271,0-250,0-250,0s0-170.207,0-250C0,187.676,0,0,0,0s174.261,0,250,0c138.064,0,250,111.929,250,250
	C500,388.064,388.064,500,250,500z"/>
</g></g><g transform="translate(119,105) scale(0.07,0.07)"><g transform="" style="fill: rgb(255, 255, 255);">
<rect width="100" height="100"/>
</g></g><g transform="translate(133,105) scale(0.014,0.014)"><g transform="" style="fill: rgb(255, 255, 255);">
<path d="M500,250c0,58.266,0,250,0,250s-170.194,0-250-0.012c-62.324,0.012-250,0-250,0s0-174.241,0-249.994
	C0.006,111.931,111.929,0,249.994,0C388.064,0,500,111.93,500,250z"/>
</g></g><g transform="translate(147,105) scale(0.014,0.014)"><g transform="" style="fill: rgb(255, 255, 255);">
<path d="M500,250c0,58.266,0,250,0,250s-170.194,0-250-0.012c-62.324,0.012-250,0-250,0s0-174.241,0-249.994
	C0.006,111.931,111.929,0,249.994,0C388.064,0,500,111.93,500,250z"/>
</g></g><g transform="translate(168,105) scale(0.014,0.014)"><g transform="" style="fill: rgb(255, 255, 255);">
<path d="M0,250C0,191.729,0,0,0,0s170.201,0,250,0c62.324,0,250,0,250,0s0,174.261,0,250c0,138.064-111.936,250-250,250
	C111.929,500,0,388.064,0,250z"/>
</g></g><g transform="translate(182,105) scale(0.07,0.07)"><g transform="" style="fill: rgb(255, 255, 255);">
<rect width="100" height="100"/>
</g></g><g transform="translate(217,105) scale(0.07,0.07)"><g transform="" style="fill: rgb(255, 255, 255);">
<rect width="100" height="100"/>
</g></g><g transform="translate(7,112) scale(0.014,0.014)"><g transform="" style="fill: rgb(255, 255, 255);">
<g>
	<path d="M0,500h500V0C223.861,0.001,0,223.854,0,500z"/>
</g>
</g></g><g transform="translate(14,112) scale(0.07,0.07)"><g transform="" style="fill: rgb(255, 255, 255);">
<rect width="100" height="100"/>
</g></g><g transform="translate(21,112) scale(0.07,0.07)"><g transform="" style="fill: rgb(255, 255, 255);">
<rect width="100" height="100"/>
</g></g><g transform="translate(35,112) scale(0.014,0.014)"><g transform="" style="fill: rgb(255, 255, 255);">
<g>
	<path d="M0,500h500V0C223.861,0.001,0,223.854,0,500z"/>
</g>
</g></g><g transform="translate(42,112) scale(0.07,0.07)"><g transform="" style="fill: rgb(255, 255, 255);">
<rect width="100" height="100"/>
</g></g><g transform="translate(49,112) scale(0.07,0.07)"><g transform="" style="fill: rgb(255, 255, 255);">
<rect width="100" height="100"/>
</g></g><g transform="translate(56,112) scale(0.07,0.07)"><g transform="" style="fill: rgb(255, 255, 255);">
<rect width="100" height="100"/>
</g></g><g transform="translate(63,112) scale(0.014,0.014)"><g transform="" style="fill: rgb(255, 255, 255);">
<path d="M250,500c-58.271,0-250,0-250,0s0-170.207,0-250C0,187.676,0,0,0,0s174.261,0,250,0c138.064,0,250,111.929,250,250
	C500,388.064,388.064,500,250,500z"/>
</g></g><g transform="translate(84,112) scale(0.014,0.014)"><g transform="" style="fill: rgb(255, 255, 255);">
<g>
	<path d="M0,500h500V0C223.861,0.001,0,223.854,0,500z"/>
</g>
</g></g><g transform="translate(91,112) scale(0.07,0.07)"><g transform="" style="fill: rgb(255, 255, 255);">
<rect width="100" height="100"/>
</g></g><g transform="translate(98,112) scale(0.07,0.07)"><g transform="" style="fill: rgb(255, 255, 255);">
<rect width="100" height="100"/>
</g></g><g transform="translate(119,112) scale(0.014,0.014)"><g transform="" style="fill: rgb(255, 255, 255);">
<path d="M0,250C0,191.729,0,0,0,0s170.201,0,250,0c62.324,0,250,0,250,0s0,174.261,0,250c0,138.064-111.936,250-250,250
	C111.929,500,0,388.064,0,250z"/>
</g></g><g transform="translate(133,112) scale(0.014,0.014)"><g transform="" style="fill: rgb(255, 255, 255);">
<g>
	<path d="M500,500V0H0C0.001,276.142,223.853,500,500,500z"/>
</g>
</g></g><g transform="translate(140,112) scale(0.07,0.07)"><g transform="" style="fill: rgb(255, 255, 255);">
<rect width="100" height="100"/>
</g></g><g transform="translate(147,112) scale(0.07,0.07)"><g transform="" style="fill: rgb(255, 255, 255);">
<rect width="100" height="100"/>
</g></g><g transform="translate(154,112) scale(0.07,0.07)"><g transform="" style="fill: rgb(255, 255, 255);">
<rect width="100" height="100"/>
</g></g><g transform="translate(161,112) scale(0.014,0.014)"><g transform="" style="fill: rgb(255, 255, 255);">
<g>
	<path d="M0,0v500h500C500,223.853,276.142,0,0,0z"/>
</g>
</g></g><g transform="translate(182,112) scale(0.014,0.014)"><g transform="" style="fill: rgb(255, 255, 255);">
<path d="M0,250C0,191.729,0,0,0,0s170.201,0,250,0c62.324,0,250,0,250,0s0,174.261,0,250c0,138.064-111.936,250-250,250
	C111.929,500,0,388.064,0,250z"/>
</g></g><g transform="translate(196,112) scale(0.014,0.014)"><g transform="" style="fill: rgb(255, 255, 255);">
<path d="M250,0c58.27,0,250,0,250,0s0,170.182,0,250c0,62.305,0,250,0,250s-174.219,0-250,0
	C111.881,500,0,388.021,0,250C0,111.963,111.881,0,250,0z"/>
</g></g><g transform="translate(203,112) scale(0.014,0.014)"><g transform="" style="fill: rgb(255, 255, 255);">
<g>
	<path d="M0,0v500h500C500,223.853,276.142,0,0,0z"/>
</g>
</g></g><g transform="translate(217,112) scale(0.014,0.014)"><g transform="" style="fill: rgb(255, 255, 255);">
<path d="M0,250C0,191.729,0,0,0,0s170.201,0,250,0c62.324,0,250,0,250,0s0,174.261,0,250c0,138.064-111.936,250-250,250
	C111.929,500,0,388.064,0,250z"/>
</g></g><g transform="translate(7,119) scale(0.014,0.014)"><g transform="" style="fill: rgb(255, 255, 255);">
<g>
	<path d="M500,500V0H0C0.001,276.142,223.853,500,500,500z"/>
</g>
</g></g><g transform="translate(14,119) scale(0.07,0.07)"><g transform="" style="fill: rgb(255, 255, 255);">
<rect width="100" height="100"/>
</g></g><g transform="translate(21,119) scale(0.014,0.014)"><g transform="" style="fill: rgb(255, 255, 255);">
<g>
	<path d="M500,0H0v500C276.142,500,500,276.142,500,0z"/>
</g>
</g></g><g transform="translate(35,119) scale(0.014,0.014)"><g transform="" style="fill: rgb(255, 255, 255);">
<path d="M0,250C0,191.729,0,0,0,0s170.201,0,250,0c62.324,0,250,0,250,0s0,174.261,0,250c0,138.064-111.936,250-250,250
	C111.929,500,0,388.064,0,250z"/>
</g></g><g transform="translate(49,119) scale(0.014,0.014)"><g transform="" style="fill: rgb(255, 255, 255);">
<g>
	<path d="M500,500V0H0C0.001,276.142,223.853,500,500,500z"/>
</g>
</g></g><g transform="translate(56,119) scale(0.07,0.07)"><g transform="" style="fill: rgb(255, 255, 255);">
<rect width="100" height="100"/>
</g></g><g transform="translate(84,119) scale(0.014,0.014)"><g transform="" style="fill: rgb(255, 255, 255);">
<path d="M0,250C0,191.729,0,0,0,0s170.201,0,250,0c62.324,0,250,0,250,0s0,174.261,0,250c0,138.064-111.936,250-250,250
	C111.929,500,0,388.064,0,250z"/>
</g></g><g transform="translate(98,119) scale(0.014,0.014)"><g transform="" style="fill: rgb(255, 255, 255);">
<path d="M0,250C0,191.729,0,0,0,0s170.201,0,250,0c62.324,0,250,0,250,0s0,174.261,0,250c0,138.064-111.936,250-250,250
	C111.929,500,0,388.064,0,250z"/>
</g></g><g transform="translate(112,119) scale(0.014,0.014)"><g transform="" style="fill: rgb(255, 255, 255);">
<path d="M250,0c138.077,0,250,111.93,250,250c0,138.077-111.923,250-250,250C111.93,500,0,388.077,0,250C0,111.93,111.93,0,250,0z"
	/>
</g></g><g transform="translate(126,119) scale(0.014,0.014)"><g transform="" style="fill: rgb(255, 255, 255);">
<path d="M500,250c0,58.266,0,250,0,250s-170.194,0-250-0.012c-62.324,0.012-250,0-250,0s0-174.241,0-249.994
	C0.006,111.931,111.929,0,249.994,0C388.064,0,500,111.93,500,250z"/>
</g></g><g transform="translate(154,119) scale(0.014,0.014)"><g transform="" style="fill: rgb(255, 255, 255);">
<g>
	<path d="M500,500V0H0C0.001,276.142,223.853,500,500,500z"/>
</g>
</g></g><g transform="translate(161,119) scale(0.07,0.07)"><g transform="" style="fill: rgb(255, 255, 255);">
<rect width="100" height="100"/>
</g></g><g transform="translate(168,119) scale(0.07,0.07)"><g transform="" style="fill: rgb(255, 255, 255);">
<rect width="100" height="100"/>
</g></g><g transform="translate(175,119) scale(0.014,0.014)"><g transform="" style="fill: rgb(255, 255, 255);">
<path d="M250,500c-58.271,0-250,0-250,0s0-170.207,0-250C0,187.676,0,0,0,0s174.261,0,250,0c138.064,0,250,111.929,250,250
	C500,388.064,388.064,500,250,500z"/>
</g></g><g transform="translate(189,119) scale(0.014,0.014)"><g transform="" style="fill: rgb(255, 255, 255);">
<path d="M250,0c138.077,0,250,111.93,250,250c0,138.077-111.923,250-250,250C111.93,500,0,388.077,0,250C0,111.93,111.93,0,250,0z"
	/>
</g></g><g transform="translate(203,119) scale(0.014,0.014)"><g transform="" style="fill: rgb(255, 255, 255);">
<path d="M0,250C0,191.729,0,0,0,0s170.201,0,250,0c62.324,0,250,0,250,0s0,174.261,0,250c0,138.064-111.936,250-250,250
	C111.929,500,0,388.064,0,250z"/>
</g></g><g transform="translate(0,126) scale(0.014,0.014)"><g transform="" style="fill: rgb(255, 255, 255);">
<path d="M500,250c0,58.266,0,250,0,250s-170.194,0-250-0.012c-62.324,0.012-250,0-250,0s0-174.241,0-249.994
	C0.006,111.931,111.929,0,249.994,0C388.064,0,500,111.93,500,250z"/>
</g></g><g transform="translate(42,126) scale(0.014,0.014)"><g transform="" style="fill: rgb(255, 255, 255);">
<path d="M250,0c138.077,0,250,111.93,250,250c0,138.077-111.923,250-250,250C111.93,500,0,388.077,0,250C0,111.93,111.93,0,250,0z"
	/>
</g></g><g transform="translate(56,126) scale(0.014,0.014)"><g transform="" style="fill: rgb(255, 255, 255);">
<path d="M0,250C0,191.729,0,0,0,0s170.201,0,250,0c62.324,0,250,0,250,0s0,174.261,0,250c0,138.064-111.936,250-250,250
	C111.929,500,0,388.064,0,250z"/>
</g></g><g transform="translate(70,126) scale(0.014,0.014)"><g transform="" style="fill: rgb(255, 255, 255);">
<path d="M250,0c138.077,0,250,111.93,250,250c0,138.077-111.923,250-250,250C111.93,500,0,388.077,0,250C0,111.93,111.93,0,250,0z"
	/>
</g></g><g transform="translate(126,126) scale(0.07,0.07)"><g transform="" style="fill: rgb(255, 255, 255);">
<rect width="100" height="100"/>
</g></g><g transform="translate(140,126) scale(0.014,0.014)"><g transform="" style="fill: rgb(255, 255, 255);">
<g>
	<path d="M0,500h500V0C223.861,0.001,0,223.854,0,500z"/>
</g>
</g></g><g transform="translate(147,126) scale(0.014,0.014)"><g transform="" style="fill: rgb(255, 255, 255);">
<g>
	<path d="M0,0v500h500C500,223.853,276.142,0,0,0z"/>
</g>
</g></g><g transform="translate(168,126) scale(0.07,0.07)"><g transform="" style="fill: rgb(255, 255, 255);">
<rect width="100" height="100"/>
</g></g><g transform="translate(182,126) scale(0.014,0.014)"><g transform="" style="fill: rgb(255, 255, 255);">
<path d="M500,250c0,58.266,0,250,0,250s-170.194,0-250-0.012c-62.324,0.012-250,0-250,0s0-174.241,0-249.994
	C0.006,111.931,111.929,0,249.994,0C388.064,0,500,111.93,500,250z"/>
</g></g><g transform="translate(210,126) scale(0.014,0.014)"><g transform="" style="fill: rgb(255, 255, 255);">
<path d="M250,0c58.27,0,250,0,250,0s0,170.182,0,250c0,62.305,0,250,0,250s-174.219,0-250,0
	C111.881,500,0,388.021,0,250C0,111.963,111.881,0,250,0z"/>
</g></g><g transform="translate(217,126) scale(0.07,0.07)"><g transform="" style="fill: rgb(255, 255, 255);">
<rect width="100" height="100"/>
</g></g><g transform="translate(224,126) scale(0.014,0.014)"><g transform="" style="fill: rgb(255, 255, 255);">
<path d="M250,500c-58.271,0-250,0-250,0s0-170.207,0-250C0,187.676,0,0,0,0s174.261,0,250,0c138.064,0,250,111.929,250,250
	C500,388.064,388.064,500,250,500z"/>
</g></g><g transform="translate(0,133) scale(0.07,0.07)"><g transform="" style="fill: rgb(255, 255, 255);">
<rect width="100" height="100"/>
</g></g><g transform="translate(14,133) scale(0.014,0.014)"><g transform="" style="fill: rgb(255, 255, 255);">
<path d="M500,250c0,58.266,0,250,0,250s-170.194,0-250-0.012c-62.324,0.012-250,0-250,0s0-174.241,0-249.994
	C0.006,111.931,111.929,0,249.994,0C388.064,0,500,111.93,500,250z"/>
</g></g><g transform="translate(35,133) scale(0.014,0.014)"><g transform="" style="fill: rgb(255, 255, 255);">
<path d="M250,0c138.077,0,250,111.93,250,250c0,138.077-111.923,250-250,250C111.93,500,0,388.077,0,250C0,111.93,111.93,0,250,0z"
	/>
</g></g><g transform="translate(63,133) scale(0.014,0.014)"><g transform="" style="fill: rgb(255, 255, 255);">
<path d="M250,0c138.077,0,250,111.93,250,250c0,138.077-111.923,250-250,250C111.93,500,0,388.077,0,250C0,111.93,111.93,0,250,0z"
	/>
</g></g><g transform="translate(84,133) scale(0.014,0.014)"><g transform="" style="fill: rgb(255, 255, 255);">
<path d="M500,250c0,58.266,0,250,0,250s-170.194,0-250-0.012c-62.324,0.012-250,0-250,0s0-174.241,0-249.994
	C0.006,111.931,111.929,0,249.994,0C388.064,0,500,111.93,500,250z"/>
</g></g><g transform="translate(98,133) scale(0.014,0.014)"><g transform="" style="fill: rgb(255, 255, 255);">
<path d="M250,0c58.27,0,250,0,250,0s0,170.182,0,250c0,62.305,0,250,0,250s-174.219,0-250,0
	C111.881,500,0,388.021,0,250C0,111.963,111.881,0,250,0z"/>
</g></g><g transform="translate(105,133) scale(0.07,0.07)"><g transform="" style="fill: rgb(255, 255, 255);">
<rect width="100" height="100"/>
</g></g><g transform="translate(112,133) scale(0.07,0.07)"><g transform="" style="fill: rgb(255, 255, 255);">
<rect width="100" height="100"/>
</g></g><g transform="translate(119,133) scale(0.07,0.07)"><g transform="" style="fill: rgb(255, 255, 255);">
<rect width="100" height="100"/>
</g></g><g transform="translate(126,133) scale(0.07,0.07)"><g transform="" style="fill: rgb(255, 255, 255);">
<rect width="100" height="100"/>
</g></g><g transform="translate(133,133) scale(0.07,0.07)"><g transform="" style="fill: rgb(255, 255, 255);">
<rect width="100" height="100"/>
</g></g><g transform="translate(140,133) scale(0.07,0.07)"><g transform="" style="fill: rgb(255, 255, 255);">
<rect width="100" height="100"/>
</g></g><g transform="translate(147,133) scale(0.014,0.014)"><g transform="" style="fill: rgb(255, 255, 255);">
<g>
	<path d="M500,0H0v500C276.142,500,500,276.142,500,0z"/>
</g>
</g></g><g transform="translate(161,133) scale(0.014,0.014)"><g transform="" style="fill: rgb(255, 255, 255);">
<g>
	<path d="M0,500h500V0C223.861,0.001,0,223.854,0,500z"/>
</g>
</g></g><g transform="translate(168,133) scale(0.07,0.07)"><g transform="" style="fill: rgb(255, 255, 255);">
<rect width="100" height="100"/>
</g></g><g transform="translate(175,133) scale(0.07,0.07)"><g transform="" style="fill: rgb(255, 255, 255);">
<rect width="100" height="100"/>
</g></g><g transform="translate(182,133) scale(0.07,0.07)"><g transform="" style="fill: rgb(255, 255, 255);">
<rect width="100" height="100"/>
</g></g><g transform="translate(189,133) scale(0.014,0.014)"><g transform="" style="fill: rgb(255, 255, 255);">
<path d="M250,500c-58.271,0-250,0-250,0s0-170.207,0-250C0,187.676,0,0,0,0s174.261,0,250,0c138.064,0,250,111.929,250,250
	C500,388.064,388.064,500,250,500z"/>
</g></g><g transform="translate(217,133) scale(0.07,0.07)"><g transform="" style="fill: rgb(255, 255, 255);">
<rect width="100" height="100"/>
</g></g><g transform="translate(0,140) scale(0.014,0.014)"><g transform="" style="fill: rgb(255, 255, 255);">
<g>
	<path d="M500,500V0H0C0.001,276.142,223.853,500,500,500z"/>
</g>
</g></g><g transform="translate(7,140) scale(0.07,0.07)"><g transform="" style="fill: rgb(255, 255, 255);">
<rect width="100" height="100"/>
</g></g><g transform="translate(14,140) scale(0.07,0.07)"><g transform="" style="fill: rgb(255, 255, 255);">
<rect width="100" height="100"/>
</g></g><g transform="translate(21,140) scale(0.07,0.07)"><g transform="" style="fill: rgb(255, 255, 255);">
<rect width="100" height="100"/>
</g></g><g transform="translate(28,140) scale(0.014,0.014)"><g transform="" style="fill: rgb(255, 255, 255);">
<g>
	<path d="M0,0v500h500C500,223.853,276.142,0,0,0z"/>
</g>
</g></g><g transform="translate(42,140) scale(0.014,0.014)"><g transform="" style="fill: rgb(255, 255, 255);">
<path d="M250,0c138.077,0,250,111.93,250,250c0,138.077-111.923,250-250,250C111.93,500,0,388.077,0,250C0,111.93,111.93,0,250,0z"
	/>
</g></g><g transform="translate(77,140) scale(0.014,0.014)"><g transform="" style="fill: rgb(255, 255, 255);">
<g>
	<path d="M0,500h500V0C223.861,0.001,0,223.854,0,500z"/>
</g>
</g></g><g transform="translate(84,140) scale(0.014,0.014)"><g transform="" style="fill: rgb(255, 255, 255);">
<g>
	<path d="M500,0H0v500C276.142,500,500,276.142,500,0z"/>
</g>
</g></g><g transform="translate(105,140) scale(0.07,0.07)"><g transform="" style="fill: rgb(255, 255, 255);">
<rect width="100" height="100"/>
</g></g><g transform="translate(112,140) scale(0.07,0.07)"><g transform="" style="fill: rgb(255, 255, 255);">
<rect width="100" height="100"/>
</g></g><g transform="translate(119,140) scale(0.07,0.07)"><g transform="" style="fill: rgb(255, 255, 255);">
<rect width="100" height="100"/>
</g></g><g transform="translate(126,140) scale(0.07,0.07)"><g transform="" style="fill: rgb(255, 255, 255);">
<rect width="100" height="100"/>
</g></g><g transform="translate(133,140) scale(0.07,0.07)"><g transform="" style="fill: rgb(255, 255, 255);">
<rect width="100" height="100"/>
</g></g><g transform="translate(154,140) scale(0.014,0.014)"><g transform="" style="fill: rgb(255, 255, 255);">
<path d="M250,0c58.27,0,250,0,250,0s0,170.182,0,250c0,62.305,0,250,0,250s-174.219,0-250,0
	C111.881,500,0,388.021,0,250C0,111.963,111.881,0,250,0z"/>
</g></g><g transform="translate(161,140) scale(0.07,0.07)"><g transform="" style="fill: rgb(255, 255, 255);">
<rect width="100" height="100"/>
</g></g><g transform="translate(168,140) scale(0.07,0.07)"><g transform="" style="fill: rgb(255, 255, 255);">
<rect width="100" height="100"/>
</g></g><g transform="translate(175,140) scale(0.014,0.014)"><g transform="" style="fill: rgb(255, 255, 255);">
<g>
	<path d="M500,0H0v500C276.142,500,500,276.142,500,0z"/>
</g>
</g></g><g transform="translate(217,140) scale(0.07,0.07)"><g transform="" style="fill: rgb(255, 255, 255);">
<rect width="100" height="100"/>
</g></g><g transform="translate(224,140) scale(0.014,0.014)"><g transform="" style="fill: rgb(255, 255, 255);">
<g>
	<path d="M0,0v500h500C500,223.853,276.142,0,0,0z"/>
</g>
</g></g><g transform="translate(21,147) scale(0.07,0.07)"><g transform="" style="fill: rgb(255, 255, 255);">
<rect width="100" height="100"/>
</g></g><g transform="translate(28,147) scale(0.07,0.07)"><g transform="" style="fill: rgb(255, 255, 255);">
<rect width="100" height="100"/>
</g></g><g transform="translate(35,147) scale(0.014,0.014)"><g transform="" style="fill: rgb(255, 255, 255);">
<path d="M250,500c-58.271,0-250,0-250,0s0-170.207,0-250C0,187.676,0,0,0,0s174.261,0,250,0c138.064,0,250,111.929,250,250
	C500,388.064,388.064,500,250,500z"/>
</g></g><g transform="translate(56,147) scale(0.014,0.014)"><g transform="" style="fill: rgb(255, 255, 255);">
<g>
	<path d="M0,500h500V0C223.861,0.001,0,223.854,0,500z"/>
</g>
</g></g><g transform="translate(63,147) scale(0.07,0.07)"><g transform="" style="fill: rgb(255, 255, 255);">
<rect width="100" height="100"/>
</g></g><g transform="translate(70,147) scale(0.07,0.07)"><g transform="" style="fill: rgb(255, 255, 255);">
<rect width="100" height="100"/>
</g></g><g transform="translate(77,147) scale(0.014,0.014)"><g transform="" style="fill: rgb(255, 255, 255);">
<g>
	<path d="M500,0H0v500C276.142,500,500,276.142,500,0z"/>
</g>
</g></g><g transform="translate(91,147) scale(0.014,0.014)"><g transform="" style="fill: rgb(255, 255, 255);">
<path d="M500,250c0,58.266,0,250,0,250s-170.194,0-250-0.012c-62.324,0.012-250,0-250,0s0-174.241,0-249.994
	C0.006,111.931,111.929,0,249.994,0C388.064,0,500,111.93,500,250z"/>
</g></g><g transform="translate(105,147) scale(0.07,0.07)"><g transform="" style="fill: rgb(255, 255, 255);">
<rect width="100" height="100"/>
</g></g><g transform="translate(112,147) scale(0.07,0.07)"><g transform="" style="fill: rgb(255, 255, 255);">
<rect width="100" height="100"/>
</g></g><g transform="translate(119,147) scale(0.07,0.07)"><g transform="" style="fill: rgb(255, 255, 255);">
<rect width="100" height="100"/>
</g></g><g transform="translate(126,147) scale(0.07,0.07)"><g transform="" style="fill: rgb(255, 255, 255);">
<rect width="100" height="100"/>
</g></g><g transform="translate(133,147) scale(0.07,0.07)"><g transform="" style="fill: rgb(255, 255, 255);">
<rect width="100" height="100"/>
</g></g><g transform="translate(140,147) scale(0.07,0.07)"><g transform="" style="fill: rgb(255, 255, 255);">
<rect width="100" height="100"/>
</g></g><g transform="translate(147,147) scale(0.014,0.014)"><g transform="" style="fill: rgb(255, 255, 255);">
<g>
	<path d="M0,0v500h500C500,223.853,276.142,0,0,0z"/>
</g>
</g></g><g transform="translate(168,147) scale(0.014,0.014)"><g transform="" style="fill: rgb(255, 255, 255);">
<path d="M0,250C0,191.729,0,0,0,0s170.201,0,250,0c62.324,0,250,0,250,0s0,174.261,0,250c0,138.064-111.936,250-250,250
	C111.929,500,0,388.064,0,250z"/>
</g></g><g transform="translate(182,147) scale(0.014,0.014)"><g transform="" style="fill: rgb(255, 255, 255);">
<path d="M500,250c0,58.266,0,250,0,250s-170.194,0-250-0.012c-62.324,0.012-250,0-250,0s0-174.241,0-249.994
	C0.006,111.931,111.929,0,249.994,0C388.064,0,500,111.93,500,250z"/>
</g></g><g transform="translate(203,147) scale(0.014,0.014)"><g transform="" style="fill: rgb(255, 255, 255);">
<path d="M500,250c0,58.266,0,250,0,250s-170.194,0-250-0.012c-62.324,0.012-250,0-250,0s0-174.241,0-249.994
	C0.006,111.931,111.929,0,249.994,0C388.064,0,500,111.93,500,250z"/>
</g></g><g transform="translate(217,147) scale(0.014,0.014)"><g transform="" style="fill: rgb(255, 255, 255);">
<g>
	<path d="M500,500V0H0C0.001,276.142,223.853,500,500,500z"/>
</g>
</g></g><g transform="translate(224,147) scale(0.07,0.07)"><g transform="" style="fill: rgb(255, 255, 255);">
<rect width="100" height="100"/>
</g></g><g transform="translate(0,154) scale(0.014,0.014)"><g transform="" style="fill: rgb(255, 255, 255);">
<path d="M250,0c58.27,0,250,0,250,0s0,170.182,0,250c0,62.305,0,250,0,250s-174.219,0-250,0
	C111.881,500,0,388.021,0,250C0,111.963,111.881,0,250,0z"/>
</g></g><g transform="translate(7,154) scale(0.014,0.014)"><g transform="" style="fill: rgb(255, 255, 255);">
<g>
	<path d="M0,0v500h500C500,223.853,276.142,0,0,0z"/>
</g>
</g></g><g transform="translate(21,154) scale(0.07,0.07)"><g transform="" style="fill: rgb(255, 255, 255);">
<rect width="100" height="100"/>
</g></g><g transform="translate(28,154) scale(0.07,0.07)"><g transform="" style="fill: rgb(255, 255, 255);">
<rect width="100" height="100"/>
</g></g><g transform="translate(42,154) scale(0.014,0.014)"><g transform="" style="fill: rgb(255, 255, 255);">
<path d="M250,0c58.27,0,250,0,250,0s0,170.182,0,250c0,62.305,0,250,0,250s-174.219,0-250,0
	C111.881,500,0,388.021,0,250C0,111.963,111.881,0,250,0z"/>
</g></g><g transform="translate(49,154) scale(0.07,0.07)"><g transform="" style="fill: rgb(255, 255, 255);">
<rect width="100" height="100"/>
</g></g><g transform="translate(56,154) scale(0.014,0.014)"><g transform="" style="fill: rgb(255, 255, 255);">
<g>
	<path d="M500,0H0v500C276.142,500,500,276.142,500,0z"/>
</g>
</g></g><g transform="translate(91,154) scale(0.014,0.014)"><g transform="" style="fill: rgb(255, 255, 255);">
<path d="M0,250C0,191.729,0,0,0,0s170.201,0,250,0c62.324,0,250,0,250,0s0,174.261,0,250c0,138.064-111.936,250-250,250
	C111.929,500,0,388.064,0,250z"/>
</g></g><g transform="translate(105,154) scale(0.014,0.014)"><g transform="" style="fill: rgb(255, 255, 255);">
<path d="M0,250C0,191.729,0,0,0,0s170.201,0,250,0c62.324,0,250,0,250,0s0,174.261,0,250c0,138.064-111.936,250-250,250
	C111.929,500,0,388.064,0,250z"/>
</g></g><g transform="translate(140,154) scale(0.014,0.014)"><g transform="" style="fill: rgb(255, 255, 255);">
<g>
	<path d="M500,500V0H0C0.001,276.142,223.853,500,500,500z"/>
</g>
</g></g><g transform="translate(147,154) scale(0.07,0.07)"><g transform="" style="fill: rgb(255, 255, 255);">
<rect width="100" height="100"/>
</g></g><g transform="translate(175,154) scale(0.014,0.014)"><g transform="" style="fill: rgb(255, 255, 255);">
<g>
	<path d="M0,500h500V0C223.861,0.001,0,223.854,0,500z"/>
</g>
</g></g><g transform="translate(182,154) scale(0.07,0.07)"><g transform="" style="fill: rgb(255, 255, 255);">
<rect width="100" height="100"/>
</g></g><g transform="translate(189,154) scale(0.014,0.014)"><g transform="" style="fill: rgb(255, 255, 255);">
<path d="M250,500c-58.271,0-250,0-250,0s0-170.207,0-250C0,187.676,0,0,0,0s174.261,0,250,0c138.064,0,250,111.929,250,250
	C500,388.064,388.064,500,250,500z"/>
</g></g><g transform="translate(203,154) scale(0.07,0.07)"><g transform="" style="fill: rgb(255, 255, 255);">
<rect width="100" height="100"/>
</g></g><g transform="translate(224,154) scale(0.014,0.014)"><g transform="" style="fill: rgb(255, 255, 255);">
<path d="M0,250C0,191.729,0,0,0,0s170.201,0,250,0c62.324,0,250,0,250,0s0,174.261,0,250c0,138.064-111.936,250-250,250
	C111.929,500,0,388.064,0,250z"/>
</g></g><g transform="translate(7,161) scale(0.014,0.014)"><g transform="" style="fill: rgb(255, 255, 255);">
<path d="M0,250C0,191.729,0,0,0,0s170.201,0,250,0c62.324,0,250,0,250,0s0,174.261,0,250c0,138.064-111.936,250-250,250
	C111.929,500,0,388.064,0,250z"/>
</g></g><g transform="translate(21,161) scale(0.014,0.014)"><g transform="" style="fill: rgb(255, 255, 255);">
<g>
	<path d="M500,500V0H0C0.001,276.142,223.853,500,500,500z"/>
</g>
</g></g><g transform="translate(28,161) scale(0.07,0.07)"><g transform="" style="fill: rgb(255, 255, 255);">
<rect width="100" height="100"/>
</g></g><g transform="translate(35,161) scale(0.014,0.014)"><g transform="" style="fill: rgb(255, 255, 255);">
<g>
	<path d="M0,0v500h500C500,223.853,276.142,0,0,0z"/>
</g>
</g></g><g transform="translate(63,161) scale(0.014,0.014)"><g transform="" style="fill: rgb(255, 255, 255);">
<path d="M500,250c0,58.266,0,250,0,250s-170.194,0-250-0.012c-62.324,0.012-250,0-250,0s0-174.241,0-249.994
	C0.006,111.931,111.929,0,249.994,0C388.064,0,500,111.93,500,250z"/>
</g></g><g transform="translate(77,161) scale(0.014,0.014)"><g transform="" style="fill: rgb(255, 255, 255);">
<path d="M250,0c58.27,0,250,0,250,0s0,170.182,0,250c0,62.305,0,250,0,250s-174.219,0-250,0
	C111.881,500,0,388.021,0,250C0,111.963,111.881,0,250,0z"/>
</g></g><g transform="translate(84,161) scale(0.014,0.014)"><g transform="" style="fill: rgb(255, 255, 255);">
<g>
	<path d="M0,0v500h500C500,223.853,276.142,0,0,0z"/>
</g>
</g></g><g transform="translate(112,161) scale(0.014,0.014)"><g transform="" style="fill: rgb(255, 255, 255);">
<path d="M500,250c0,58.266,0,250,0,250s-170.194,0-250-0.012c-62.324,0.012-250,0-250,0s0-174.241,0-249.994
	C0.006,111.931,111.929,0,249.994,0C388.064,0,500,111.93,500,250z"/>
</g></g><g transform="translate(126,161) scale(0.014,0.014)"><g transform="" style="fill: rgb(255, 255, 255);">
<path d="M250,0c138.077,0,250,111.93,250,250c0,138.077-111.923,250-250,250C111.93,500,0,388.077,0,250C0,111.93,111.93,0,250,0z"
	/>
</g></g><g transform="translate(147,161) scale(0.07,0.07)"><g transform="" style="fill: rgb(255, 255, 255);">
<rect width="100" height="100"/>
</g></g><g transform="translate(154,161) scale(0.014,0.014)"><g transform="" style="fill: rgb(255, 255, 255);">
<path d="M250,500c-58.271,0-250,0-250,0s0-170.207,0-250C0,187.676,0,0,0,0s174.261,0,250,0c138.064,0,250,111.929,250,250
	C500,388.064,388.064,500,250,500z"/>
</g></g><g transform="translate(175,161) scale(0.07,0.07)"><g transform="" style="fill: rgb(255, 255, 255);">
<rect width="100" height="100"/>
</g></g><g transform="translate(196,161) scale(0.014,0.014)"><g transform="" style="fill: rgb(255, 255, 255);">
<g>
	<path d="M0,500h500V0C223.861,0.001,0,223.854,0,500z"/>
</g>
</g></g><g transform="translate(203,161) scale(0.07,0.07)"><g transform="" style="fill: rgb(255, 255, 255);">
<rect width="100" height="100"/>
</g></g><g transform="translate(0,168) scale(0.014,0.014)"><g transform="" style="fill: rgb(255, 255, 255);">
<path d="M250,0c138.077,0,250,111.93,250,250c0,138.077-111.923,250-250,250C111.93,500,0,388.077,0,250C0,111.93,111.93,0,250,0z"
	/>
</g></g><g transform="translate(35,168) scale(0.014,0.014)"><g transform="" style="fill: rgb(255, 255, 255);">
<g>
	<path d="M500,500V0H0C0.001,276.142,223.853,500,500,500z"/>
</g>
</g></g><g transform="translate(42,168) scale(0.07,0.07)"><g transform="" style="fill: rgb(255, 255, 255);">
<rect width="100" height="100"/>
</g></g><g transform="translate(49,168) scale(0.07,0.07)"><g transform="" style="fill: rgb(255, 255, 255);">
<rect width="100" height="100"/>
</g></g><g transform="translate(56,168) scale(0.07,0.07)"><g transform="" style="fill: rgb(255, 255, 255);">
<rect width="100" height="100"/>
</g></g><g transform="translate(63,168) scale(0.07,0.07)"><g transform="" style="fill: rgb(255, 255, 255);">
<rect width="100" height="100"/>
</g></g><g transform="translate(84,168) scale(0.014,0.014)"><g transform="" style="fill: rgb(255, 255, 255);">
<g>
	<path d="M500,500V0H0C0.001,276.142,223.853,500,500,500z"/>
</g>
</g></g><g transform="translate(91,168) scale(0.07,0.07)"><g transform="" style="fill: rgb(255, 255, 255);">
<rect width="100" height="100"/>
</g></g><g transform="translate(98,168) scale(0.07,0.07)"><g transform="" style="fill: rgb(255, 255, 255);">
<rect width="100" height="100"/>
</g></g><g transform="translate(105,168) scale(0.07,0.07)"><g transform="" style="fill: rgb(255, 255, 255);">
<rect width="100" height="100"/>
</g></g><g transform="translate(112,168) scale(0.07,0.07)"><g transform="" style="fill: rgb(255, 255, 255);">
<rect width="100" height="100"/>
</g></g><g transform="translate(119,168) scale(0.014,0.014)"><g transform="" style="fill: rgb(255, 255, 255);">
<path d="M250,500c-58.271,0-250,0-250,0s0-170.207,0-250C0,187.676,0,0,0,0s174.261,0,250,0c138.064,0,250,111.929,250,250
	C500,388.064,388.064,500,250,500z"/>
</g></g><g transform="translate(133,168) scale(0.014,0.014)"><g transform="" style="fill: rgb(255, 255, 255);">
<g>
	<path d="M0,500h500V0C223.861,0.001,0,223.854,0,500z"/>
</g>
</g></g><g transform="translate(140,168) scale(0.07,0.07)"><g transform="" style="fill: rgb(255, 255, 255);">
<rect width="100" height="100"/>
</g></g><g transform="translate(147,168) scale(0.014,0.014)"><g transform="" style="fill: rgb(255, 255, 255);">
<g>
	<path d="M500,0H0v500C276.142,500,500,276.142,500,0z"/>
</g>
</g></g><g transform="translate(168,168) scale(0.014,0.014)"><g transform="" style="fill: rgb(255, 255, 255);">
<g>
	<path d="M0,500h500V0C223.861,0.001,0,223.854,0,500z"/>
</g>
</g></g><g transform="translate(175,168) scale(0.07,0.07)"><g transform="" style="fill: rgb(255, 255, 255);">
<rect width="100" height="100"/>
</g></g><g transform="translate(182,168) scale(0.07,0.07)"><g transform="" style="fill: rgb(255, 255, 255);">
<rect width="100" height="100"/>
</g></g><g transform="translate(189,168) scale(0.07,0.07)"><g transform="" style="fill: rgb(255, 255, 255);">
<rect width="100" height="100"/>
</g></g><g transform="translate(196,168) scale(0.07,0.07)"><g transform="" style="fill: rgb(255, 255, 255);">
<rect width="100" height="100"/>
</g></g><g transform="translate(203,168) scale(0.07,0.07)"><g transform="" style="fill: rgb(255, 255, 255);">
<rect width="100" height="100"/>
</g></g><g transform="translate(217,168) scale(0.014,0.014)"><g transform="" style="fill: rgb(255, 255, 255);">
<path d="M250,0c138.077,0,250,111.93,250,250c0,138.077-111.923,250-250,250C111.93,500,0,388.077,0,250C0,111.93,111.93,0,250,0z"
	/>
</g></g><g transform="translate(56,175) scale(0.014,0.014)"><g transform="" style="fill: rgb(255, 255, 255);">
<g>
	<path d="M500,500V0H0C0.001,276.142,223.853,500,500,500z"/>
</g>
</g></g><g transform="translate(63,175) scale(0.014,0.014)"><g transform="" style="fill: rgb(255, 255, 255);">
<g>
	<path d="M500,0H0v500C276.142,500,500,276.142,500,0z"/>
</g>
</g></g><g transform="translate(91,175) scale(0.014,0.014)"><g transform="" style="fill: rgb(255, 255, 255);">
<path d="M0,250C0,191.729,0,0,0,0s170.201,0,250,0c62.324,0,250,0,250,0s0,174.261,0,250c0,138.064-111.936,250-250,250
	C111.929,500,0,388.064,0,250z"/>
</g></g><g transform="translate(133,175) scale(0.014,0.014)"><g transform="" style="fill: rgb(255, 255, 255);">
<path d="M0,250C0,191.729,0,0,0,0s170.201,0,250,0c62.324,0,250,0,250,0s0,174.261,0,250c0,138.064-111.936,250-250,250
	C111.929,500,0,388.064,0,250z"/>
</g></g><g transform="translate(168,175) scale(0.07,0.07)"><g transform="" style="fill: rgb(255, 255, 255);">
<rect width="100" height="100"/>
</g></g><g transform="translate(196,175) scale(0.07,0.07)"><g transform="" style="fill: rgb(255, 255, 255);">
<rect width="100" height="100"/>
</g></g><g transform="translate(203,175) scale(0.07,0.07)"><g transform="" style="fill: rgb(255, 255, 255);">
<rect width="100" height="100"/>
</g></g><g transform="translate(224,175) scale(0.014,0.014)"><g transform="" style="fill: rgb(255, 255, 255);">
<path d="M250,0c138.077,0,250,111.93,250,250c0,138.077-111.923,250-250,250C111.93,500,0,388.077,0,250C0,111.93,111.93,0,250,0z"
	/>
</g></g><g transform="translate(84,182) scale(0.014,0.014)"><g transform="" style="fill: rgb(255, 255, 255);">
<path d="M500,250c0,58.266,0,250,0,250s-170.194,0-250-0.012c-62.324,0.012-250,0-250,0s0-174.241,0-249.994
	C0.006,111.931,111.929,0,249.994,0C388.064,0,500,111.93,500,250z"/>
</g></g><g transform="translate(98,182) scale(0.014,0.014)"><g transform="" style="fill: rgb(255, 255, 255);">
<path d="M250,0c138.077,0,250,111.93,250,250c0,138.077-111.923,250-250,250C111.93,500,0,388.077,0,250C0,111.93,111.93,0,250,0z"
	/>
</g></g><g transform="translate(112,182) scale(0.014,0.014)"><g transform="" style="fill: rgb(255, 255, 255);">
<path d="M500,250c0,58.266,0,250,0,250s-170.194,0-250-0.012c-62.324,0.012-250,0-250,0s0-174.241,0-249.994
	C0.006,111.931,111.929,0,249.994,0C388.064,0,500,111.93,500,250z"/>
</g></g><g transform="translate(147,182) scale(0.014,0.014)"><g transform="" style="fill: rgb(255, 255, 255);">
<path d="M250,0c138.077,0,250,111.93,250,250c0,138.077-111.923,250-250,250C111.93,500,0,388.077,0,250C0,111.93,111.93,0,250,0z"
	/>
</g></g><g transform="translate(168,182) scale(0.07,0.07)"><g transform="" style="fill: rgb(255, 255, 255);">
<rect width="100" height="100"/>
</g></g><g transform="translate(182,182) scale(0.014,0.014)"><g transform="" style="fill: rgb(255, 255, 255);">
<path d="M250,0c138.077,0,250,111.93,250,250c0,138.077-111.923,250-250,250C111.93,500,0,388.077,0,250C0,111.93,111.93,0,250,0z"
	/>
</g></g><g transform="translate(196,182) scale(0.07,0.07)"><g transform="" style="fill: rgb(255, 255, 255);">
<rect width="100" height="100"/>
</g></g><g transform="translate(203,182) scale(0.07,0.07)"><g transform="" style="fill: rgb(255, 255, 255);">
<rect width="100" height="100"/>
</g></g><g transform="translate(210,182) scale(0.014,0.014)"><g transform="" style="fill: rgb(255, 255, 255);">
<path d="M250,500c-58.271,0-250,0-250,0s0-170.207,0-250C0,187.676,0,0,0,0s174.261,0,250,0c138.064,0,250,111.929,250,250
	C500,388.064,388.064,500,250,500z"/>
</g></g><g transform="translate(56,189) scale(0.014,0.014)"><g transform="" style="fill: rgb(255, 255, 255);">
<path d="M250,0c58.27,0,250,0,250,0s0,170.182,0,250c0,62.305,0,250,0,250s-174.219,0-250,0
	C111.881,500,0,388.021,0,250C0,111.963,111.881,0,250,0z"/>
</g></g><g transform="translate(63,189) scale(0.07,0.07)"><g transform="" style="fill: rgb(255, 255, 255);">
<rect width="100" height="100"/>
</g></g><g transform="translate(70,189) scale(0.07,0.07)"><g transform="" style="fill: rgb(255, 255, 255);">
<rect width="100" height="100"/>
</g></g><g transform="translate(77,189) scale(0.07,0.07)"><g transform="" style="fill: rgb(255, 255, 255);">
<rect width="100" height="100"/>
</g></g><g transform="translate(84,189) scale(0.07,0.07)"><g transform="" style="fill: rgb(255, 255, 255);">
<rect width="100" height="100"/>
</g></g><g transform="translate(91,189) scale(0.014,0.014)"><g transform="" style="fill: rgb(255, 255, 255);">
<g>
	<path d="M0,0v500h500C500,223.853,276.142,0,0,0z"/>
</g>
</g></g><g transform="translate(112,189) scale(0.07,0.07)"><g transform="" style="fill: rgb(255, 255, 255);">
<rect width="100" height="100"/>
</g></g><g transform="translate(168,189) scale(0.07,0.07)"><g transform="" style="fill: rgb(255, 255, 255);">
<rect width="100" height="100"/>
</g></g><g transform="translate(196,189) scale(0.07,0.07)"><g transform="" style="fill: rgb(255, 255, 255);">
<rect width="100" height="100"/>
</g></g><g transform="translate(77,196) scale(0.014,0.014)"><g transform="" style="fill: rgb(255, 255, 255);">
<path d="M0,250C0,191.729,0,0,0,0s170.201,0,250,0c62.324,0,250,0,250,0s0,174.261,0,250c0,138.064-111.936,250-250,250
	C111.929,500,0,388.064,0,250z"/>
</g></g><g transform="translate(91,196) scale(0.014,0.014)"><g transform="" style="fill: rgb(255, 255, 255);">
<path d="M0,250C0,191.729,0,0,0,0s170.201,0,250,0c62.324,0,250,0,250,0s0,174.261,0,250c0,138.064-111.936,250-250,250
	C111.929,500,0,388.064,0,250z"/>
</g></g><g transform="translate(105,196) scale(0.014,0.014)"><g transform="" style="fill: rgb(255, 255, 255);">
<g>
	<path d="M0,500h500V0C223.861,0.001,0,223.854,0,500z"/>
</g>
</g></g><g transform="translate(112,196) scale(0.014,0.014)"><g transform="" style="fill: rgb(255, 255, 255);">
<g>
	<path d="M500,0H0v500C276.142,500,500,276.142,500,0z"/>
</g>
</g></g><g transform="translate(133,196) scale(0.014,0.014)"><g transform="" style="fill: rgb(255, 255, 255);">
<path d="M500,250c0,58.266,0,250,0,250s-170.194,0-250-0.012c-62.324,0.012-250,0-250,0s0-174.241,0-249.994
	C0.006,111.931,111.929,0,249.994,0C388.064,0,500,111.93,500,250z"/>
</g></g><g transform="translate(154,196) scale(0.014,0.014)"><g transform="" style="fill: rgb(255, 255, 255);">
<path d="M250,0c138.077,0,250,111.93,250,250c0,138.077-111.923,250-250,250C111.93,500,0,388.077,0,250C0,111.93,111.93,0,250,0z"
	/>
</g></g><g transform="translate(168,196) scale(0.014,0.014)"><g transform="" style="fill: rgb(255, 255, 255);">
<g>
	<path d="M500,500V0H0C0.001,276.142,223.853,500,500,500z"/>
</g>
</g></g><g transform="translate(175,196) scale(0.07,0.07)"><g transform="" style="fill: rgb(255, 255, 255);">
<rect width="100" height="100"/>
</g></g><g transform="translate(182,196) scale(0.07,0.07)"><g transform="" style="fill: rgb(255, 255, 255);">
<rect width="100" height="100"/>
</g></g><g transform="translate(189,196) scale(0.07,0.07)"><g transform="" style="fill: rgb(255, 255, 255);">
<rect width="100" height="100"/>
</g></g><g transform="translate(196,196) scale(0.07,0.07)"><g transform="" style="fill: rgb(255, 255, 255);">
<rect width="100" height="100"/>
</g></g><g transform="translate(203,196) scale(0.014,0.014)"><g transform="" style="fill: rgb(255, 255, 255);">
<g>
	<path d="M0,0v500h500C500,223.853,276.142,0,0,0z"/>
</g>
</g></g><g transform="translate(217,196) scale(0.014,0.014)"><g transform="" style="fill: rgb(255, 255, 255);">
<path d="M500,250c0,58.266,0,250,0,250s-170.194,0-250-0.012c-62.324,0.012-250,0-250,0s0-174.241,0-249.994
	C0.006,111.931,111.929,0,249.994,0C388.064,0,500,111.93,500,250z"/>
</g></g><g transform="translate(56,203) scale(0.014,0.014)"><g transform="" style="fill: rgb(255, 255, 255);">
<path d="M250,0c58.27,0,250,0,250,0s0,170.182,0,250c0,62.305,0,250,0,250s-174.219,0-250,0
	C111.881,500,0,388.021,0,250C0,111.963,111.881,0,250,0z"/>
</g></g><g transform="translate(63,203) scale(0.07,0.07)"><g transform="" style="fill: rgb(255, 255, 255);">
<rect width="100" height="100"/>
</g></g><g transform="translate(70,203) scale(0.014,0.014)"><g transform="" style="fill: rgb(255, 255, 255);">
<path d="M250,500c-58.271,0-250,0-250,0s0-170.207,0-250C0,187.676,0,0,0,0s174.261,0,250,0c138.064,0,250,111.929,250,250
	C500,388.064,388.064,500,250,500z"/>
</g></g><g transform="translate(84,203) scale(0.014,0.014)"><g transform="" style="fill: rgb(255, 255, 255);">
<path d="M250,0c138.077,0,250,111.93,250,250c0,138.077-111.923,250-250,250C111.93,500,0,388.077,0,250C0,111.93,111.93,0,250,0z"
	/>
</g></g><g transform="translate(105,203) scale(0.014,0.014)"><g transform="" style="fill: rgb(255, 255, 255);">
<path d="M0,250C0,191.729,0,0,0,0s170.201,0,250,0c62.324,0,250,0,250,0s0,174.261,0,250c0,138.064-111.936,250-250,250
	C111.929,500,0,388.064,0,250z"/>
</g></g><g transform="translate(133,203) scale(0.014,0.014)"><g transform="" style="fill: rgb(255, 255, 255);">
<g>
	<path d="M500,500V0H0C0.001,276.142,223.853,500,500,500z"/>
</g>
</g></g><g transform="translate(140,203) scale(0.07,0.07)"><g transform="" style="fill: rgb(255, 255, 255);">
<rect width="100" height="100"/>
</g></g><g transform="translate(147,203) scale(0.014,0.014)"><g transform="" style="fill: rgb(255, 255, 255);">
<path d="M250,500c-58.271,0-250,0-250,0s0-170.207,0-250C0,187.676,0,0,0,0s174.261,0,250,0c138.064,0,250,111.929,250,250
	C500,388.064,388.064,500,250,500z"/>
</g></g><g transform="translate(161,203) scale(0.014,0.014)"><g transform="" style="fill: rgb(255, 255, 255);">
<path d="M500,250c0,58.266,0,250,0,250s-170.194,0-250-0.012c-62.324,0.012-250,0-250,0s0-174.241,0-249.994
	C0.006,111.931,111.929,0,249.994,0C388.064,0,500,111.93,500,250z"/>
</g></g><g transform="translate(182,203) scale(0.014,0.014)"><g transform="" style="fill: rgb(255, 255, 255);">
<path d="M0,250C0,191.729,0,0,0,0s170.201,0,250,0c62.324,0,250,0,250,0s0,174.261,0,250c0,138.064-111.936,250-250,250
	C111.929,500,0,388.064,0,250z"/>
</g></g><g transform="translate(196,203) scale(0.07,0.07)"><g transform="" style="fill: rgb(255, 255, 255);">
<rect width="100" height="100"/>
</g></g><g transform="translate(203,203) scale(0.07,0.07)"><g transform="" style="fill: rgb(255, 255, 255);">
<rect width="100" height="100"/>
</g></g><g transform="translate(217,203) scale(0.014,0.014)"><g transform="" style="fill: rgb(255, 255, 255);">
<path d="M0,250C0,191.729,0,0,0,0s170.201,0,250,0c62.324,0,250,0,250,0s0,174.261,0,250c0,138.064-111.936,250-250,250
	C111.929,500,0,388.064,0,250z"/>
</g></g><g transform="translate(63,210) scale(0.07,0.07)"><g transform="" style="fill: rgb(255, 255, 255);">
<rect width="100" height="100"/>
</g></g><g transform="translate(77,210) scale(0.014,0.014)"><g transform="" style="fill: rgb(255, 255, 255);">
<path d="M250,0c138.077,0,250,111.93,250,250c0,138.077-111.923,250-250,250C111.93,500,0,388.077,0,250C0,111.93,111.93,0,250,0z"
	/>
</g></g><g transform="translate(119,210) scale(0.014,0.014)"><g transform="" style="fill: rgb(255, 255, 255);">
<g>
	<path d="M0,500h500V0C223.861,0.001,0,223.854,0,500z"/>
</g>
</g></g><g transform="translate(126,210) scale(0.014,0.014)"><g transform="" style="fill: rgb(255, 255, 255);">
<path d="M250,500c-58.271,0-250,0-250,0s0-170.207,0-250C0,187.676,0,0,0,0s174.261,0,250,0c138.064,0,250,111.929,250,250
	C500,388.064,388.064,500,250,500z"/>
</g></g><g transform="translate(161,210) scale(0.07,0.07)"><g transform="" style="fill: rgb(255, 255, 255);">
<rect width="100" height="100"/>
</g></g><g transform="translate(168,210) scale(0.014,0.014)"><g transform="" style="fill: rgb(255, 255, 255);">
<g>
	<path d="M0,0v500h500C500,223.853,276.142,0,0,0z"/>
</g>
</g></g><g transform="translate(196,210) scale(0.014,0.014)"><g transform="" style="fill: rgb(255, 255, 255);">
<g>
	<path d="M500,500V0H0C0.001,276.142,223.853,500,500,500z"/>
</g>
</g></g><g transform="translate(203,210) scale(0.07,0.07)"><g transform="" style="fill: rgb(255, 255, 255);">
<rect width="100" height="100"/>
</g></g><g transform="translate(210,210) scale(0.014,0.014)"><g transform="" style="fill: rgb(255, 255, 255);">
<path d="M250,500c-58.271,0-250,0-250,0s0-170.207,0-250C0,187.676,0,0,0,0s174.261,0,250,0c138.064,0,250,111.929,250,250
	C500,388.064,388.064,500,250,500z"/>
</g></g><g transform="translate(224,210) scale(0.014,0.014)"><g transform="" style="fill: rgb(255, 255, 255);">
<path d="M250,0c138.077,0,250,111.93,250,250c0,138.077-111.923,250-250,250C111.93,500,0,388.077,0,250C0,111.93,111.93,0,250,0z"
	/>
</g></g><g transform="translate(63,217) scale(0.014,0.014)"><g transform="" style="fill: rgb(255, 255, 255);">
<g>
	<path d="M500,500V0H0C0.001,276.142,223.853,500,500,500z"/>
</g>
</g></g><g transform="translate(70,217) scale(0.014,0.014)"><g transform="" style="fill: rgb(255, 255, 255);">
<g>
	<path d="M0,0v500h500C500,223.853,276.142,0,0,0z"/>
</g>
</g></g><g transform="translate(84,217) scale(0.014,0.014)"><g transform="" style="fill: rgb(255, 255, 255);">
<path d="M250,0c58.27,0,250,0,250,0s0,170.182,0,250c0,62.305,0,250,0,250s-174.219,0-250,0
	C111.881,500,0,388.021,0,250C0,111.963,111.881,0,250,0z"/>
</g></g><g transform="translate(91,217) scale(0.07,0.07)"><g transform="" style="fill: rgb(255, 255, 255);">
<rect width="100" height="100"/>
</g></g><g transform="translate(98,217) scale(0.07,0.07)"><g transform="" style="fill: rgb(255, 255, 255);">
<rect width="100" height="100"/>
</g></g><g transform="translate(105,217) scale(0.07,0.07)"><g transform="" style="fill: rgb(255, 255, 255);">
<rect width="100" height="100"/>
</g></g><g transform="translate(112,217) scale(0.07,0.07)"><g transform="" style="fill: rgb(255, 255, 255);">
<rect width="100" height="100"/>
</g></g><g transform="translate(119,217) scale(0.014,0.014)"><g transform="" style="fill: rgb(255, 255, 255);">
<g>
	<path d="M500,0H0v500C276.142,500,500,276.142,500,0z"/>
</g>
</g></g><g transform="translate(147,217) scale(0.014,0.014)"><g transform="" style="fill: rgb(255, 255, 255);">
<path d="M500,250c0,58.266,0,250,0,250s-170.194,0-250-0.012c-62.324,0.012-250,0-250,0s0-174.241,0-249.994
	C0.006,111.931,111.929,0,249.994,0C388.064,0,500,111.93,500,250z"/>
</g></g><g transform="translate(161,217) scale(0.014,0.014)"><g transform="" style="fill: rgb(255, 255, 255);">
<g>
	<path d="M500,500V0H0C0.001,276.142,223.853,500,500,500z"/>
</g>
</g></g><g transform="translate(168,217) scale(0.07,0.07)"><g transform="" style="fill: rgb(255, 255, 255);">
<rect width="100" height="100"/>
</g></g><g transform="translate(56,224) scale(0.014,0.014)"><g transform="" style="fill: rgb(255, 255, 255);">
<path d="M250,0c138.077,0,250,111.93,250,250c0,138.077-111.923,250-250,250C111.93,500,0,388.077,0,250C0,111.93,111.93,0,250,0z"
	/>
</g></g><g transform="translate(70,224) scale(0.014,0.014)"><g transform="" style="fill: rgb(255, 255, 255);">
<g>
	<path d="M500,500V0H0C0.001,276.142,223.853,500,500,500z"/>
</g>
</g></g><g transform="translate(77,224) scale(0.014,0.014)"><g transform="" style="fill: rgb(255, 255, 255);">
<path d="M250,500c-58.271,0-250,0-250,0s0-170.207,0-250C0,187.676,0,0,0,0s174.261,0,250,0c138.064,0,250,111.929,250,250
	C500,388.064,388.064,500,250,500z"/>
</g></g><g transform="translate(112,224) scale(0.014,0.014)"><g transform="" style="fill: rgb(255, 255, 255);">
<path d="M0,250C0,191.729,0,0,0,0s170.201,0,250,0c62.324,0,250,0,250,0s0,174.261,0,250c0,138.064-111.936,250-250,250
	C111.929,500,0,388.064,0,250z"/>
</g></g><g transform="translate(126,224) scale(0.014,0.014)"><g transform="" style="fill: rgb(255, 255, 255);">
<path d="M250,0c138.077,0,250,111.93,250,250c0,138.077-111.923,250-250,250C111.93,500,0,388.077,0,250C0,111.93,111.93,0,250,0z"
	/>
</g></g><g transform="translate(140,224) scale(0.014,0.014)"><g transform="" style="fill: rgb(255, 255, 255);">
<path d="M250,0c58.27,0,250,0,250,0s0,170.182,0,250c0,62.305,0,250,0,250s-174.219,0-250,0
	C111.881,500,0,388.021,0,250C0,111.963,111.881,0,250,0z"/>
</g></g><g transform="translate(147,224) scale(0.014,0.014)"><g transform="" style="fill: rgb(255, 255, 255);">
<g>
	<path d="M500,0H0v500C276.142,500,500,276.142,500,0z"/>
</g>
</g></g><g transform="translate(168,224) scale(0.014,0.014)"><g transform="" style="fill: rgb(255, 255, 255);">
<path d="M0,250C0,191.729,0,0,0,0s170.201,0,250,0c62.324,0,250,0,250,0s0,174.261,0,250c0,138.064-111.936,250-250,250
	C111.929,500,0,388.064,0,250z"/>
</g></g><g transform="translate(196,224) scale(0.014,0.014)"><g transform="" style="fill: rgb(255, 255, 255);">
<path d="M250,0c58.27,0,250,0,250,0s0,170.182,0,250c0,62.305,0,250,0,250s-174.219,0-250,0
	C111.881,500,0,388.021,0,250C0,111.963,111.881,0,250,0z"/>
</g></g><g transform="translate(203,224) scale(0.014,0.014)"><g transform="" style="fill: rgb(255, 255, 255);">
<path d="M250,500c-58.271,0-250,0-250,0s0-170.207,0-250C0,187.676,0,0,0,0s174.261,0,250,0c138.064,0,250,111.929,250,250
	C500,388.064,388.064,500,250,500z"/>
</g></g><g transform="translate(217,224) scale(0.014,0.014)"><g transform="" style="fill: rgb(255, 255, 255);">
<path d="M250,0c138.077,0,250,111.93,250,250c0,138.077-111.923,250-250,250C111.93,500,0,388.077,0,250C0,111.93,111.93,0,250,0z"
	/>
</g></g><g transform="translate(0,0) scale(0.49, 0.49)"><g transform="" style="fill: rgb(255, 255, 255);">
<g>
	<path style="fill:none;" d="M65.859,15.008H34.141c-4.082,0-7.869,1.258-10.979,3.398c-2.419,1.665-4.428,3.864-5.848,6.421
		C15.838,27.484,15,30.526,15,33.758v32.471c0,10.344,8.586,18.76,19.145,18.76L50,84.992l15.855-0.004
		C76.414,84.988,85,76.572,85,66.229V33.758C85,23.419,76.414,15.008,65.859,15.008z"/>
	<path d="M65.859,0.008H34.141h0C18.683,0.008,5.587,10.221,1.4,24.18c-0.433,1.444-0.771,2.928-1.006,4.445
		C0.135,30.299,0,32.013,0,33.758v32.471c0,18.619,15.32,33.76,34.141,33.76L50,99.992l15.859-0.004
		c18.82,0,34.141-15.141,34.141-33.76V33.758C100,15.148,84.68,0.008,65.859,0.008z M85,66.229c0,10.344-8.586,18.76-19.145,18.76
		L50,84.992l-15.855-0.004C23.586,84.988,15,76.572,15,66.229V33.758c0-3.231,0.838-6.273,2.313-8.931
		c1.42-2.557,3.429-4.756,5.848-6.421c3.11-2.141,6.897-3.398,10.979-3.398h31.719C76.414,15.008,85,23.419,85,33.758V66.229z"/>
</g>
</g></g><g transform="translate(182,0) scale(0.49, 0.49)"><g transform="" style="fill: rgb(255, 255, 255);">
<g>
	<path style="fill:none;" d="M65.859,15.008H34.141c-4.082,0-7.869,1.258-10.979,3.398c-2.419,1.665-4.428,3.864-5.848,6.421
		C15.838,27.484,15,30.526,15,33.758v32.471c0,10.344,8.586,18.76,19.145,18.76L50,84.992l15.855-0.004
		C76.414,84.988,85,76.572,85,66.229V33.758C85,23.419,76.414,15.008,65.859,15.008z"/>
	<path d="M65.859,0.008H34.141h0C18.683,0.008,5.587,10.221,1.4,24.18c-0.433,1.444-0.771,2.928-1.006,4.445
		C0.135,30.299,0,32.013,0,33.758v32.471c0,18.619,15.32,33.76,34.141,33.76L50,99.992l15.859-0.004
		c18.82,0,34.141-15.141,34.141-33.76V33.758C100,15.148,84.68,0.008,65.859,0.008z M85,66.229c0,10.344-8.586,18.76-19.145,18.76
		L50,84.992l-15.855-0.004C23.586,84.988,15,76.572,15,66.229V33.758c0-3.231,0.838-6.273,2.313-8.931
		c1.42-2.557,3.429-4.756,5.848-6.421c3.11-2.141,6.897-3.398,10.979-3.398h31.719C76.414,15.008,85,23.419,85,33.758V66.229z"/>
</g>
</g></g><g transform="translate(0,182) scale(0.49, 0.49)"><g transform="" style="fill: rgb(255, 255, 255);">
<g>
	<path style="fill:none;" d="M65.859,15.008H34.141c-4.082,0-7.869,1.258-10.979,3.398c-2.419,1.665-4.428,3.864-5.848,6.421
		C15.838,27.484,15,30.526,15,33.758v32.471c0,10.344,8.586,18.76,19.145,18.76L50,84.992l15.855-0.004
		C76.414,84.988,85,76.572,85,66.229V33.758C85,23.419,76.414,15.008,65.859,15.008z"/>
	<path d="M65.859,0.008H34.141h0C18.683,0.008,5.587,10.221,1.4,24.18c-0.433,1.444-0.771,2.928-1.006,4.445
		C0.135,30.299,0,32.013,0,33.758v32.471c0,18.619,15.32,33.76,34.141,33.76L50,99.992l15.859-0.004
		c18.82,0,34.141-15.141,34.141-33.76V33.758C100,15.148,84.68,0.008,65.859,0.008z M85,66.229c0,10.344-8.586,18.76-19.145,18.76
		L50,84.992l-15.855-0.004C23.586,84.988,15,76.572,15,66.229V33.758c0-3.231,0.838-6.273,2.313-8.931
		c1.42-2.557,3.429-4.756,5.848-6.421c3.11-2.141,6.897-3.398,10.979-3.398h31.719C76.414,15.008,85,23.419,85,33.758V66.229z"/>
</g>
</g></g><g transform="translate(14,14) scale(0.21, 0.21)"><g transform="" style="fill: rgb(255, 255, 255);">
<g>
	<g id="XMLID_1_">
		<g>
			<path d="M27.351,100c-15.09,0-27.365-12.032-27.365-26.808V26.794c0-4.616,1.2-8.96,3.301-12.761
				c2.029-3.658,4.901-6.802,8.36-9.174C16.09,1.801,21.506,0,27.336,0h45.327c15.076,0,27.351,12.018,27.351,26.793v46.398
				c0,14.775-12.274,26.808-27.351,26.808H50H27.351z"/>
		</g>
		<g>
		</g>
	</g>
</g>
</g></g><g transform="translate(196,14) scale(0.21, 0.21)"><g transform="" style="fill: rgb(255, 255, 255);">
<g>
	<g id="XMLID_1_">
		<g>
			<path d="M27.351,100c-15.09,0-27.365-12.032-27.365-26.808V26.794c0-4.616,1.2-8.96,3.301-12.761
				c2.029-3.658,4.901-6.802,8.36-9.174C16.09,1.801,21.506,0,27.336,0h45.327c15.076,0,27.351,12.018,27.351,26.793v46.398
				c0,14.775-12.274,26.808-27.351,26.808H50H27.351z"/>
		</g>
		<g>
		</g>
	</g>
</g>
</g></g><g transform="translate(14,196) scale(0.21, 0.21)"><g transform="" style="fill: rgb(255, 255, 255);">
<g>
	<g id="XMLID_1_">
		<g>
			<path d="M27.351,100c-15.09,0-27.365-12.032-27.365-26.808V26.794c0-4.616,1.2-8.96,3.301-12.761
				c2.029-3.658,4.901-6.802,8.36-9.174C16.09,1.801,21.506,0,27.336,0h45.327c15.076,0,27.351,12.018,27.351,26.793v46.398
				c0,14.775-12.274,26.808-27.351,26.808H50H27.351z"/>
		</g>
		<g>
		</g>
	</g>
</g>
</g></g></g></svg>